<svg width="108" height="108" viewBox="0 0 108 108" fill="none" xmlns="http://www.w3.org/2000/svg">
<path opacity="0.4" d="M86.8499 35.6397V58.8148C86.8499 72.6748 78.93 78.6146 67.05 78.6146H27.4949C25.4699 78.6146 23.5349 78.4349 21.7349 78.0299C20.6099 77.8499 19.53 77.5349 18.54 77.1749C11.79 74.6549 7.69496 68.8048 7.69496 58.8148V35.6397C7.69496 21.7797 15.6149 15.8398 27.4949 15.8398H67.05C77.13 15.8398 84.375 20.1148 86.31 29.8798C86.625 31.6798 86.8499 33.5247 86.8499 35.6397Z" fill="#F47576"/>
<path d="M100.35 49.1397V72.3148C100.35 86.1749 92.43 92.1147 80.55 92.1147H40.9949C37.6649 92.1147 34.65 91.6649 32.04 90.6749C26.685 88.6949 23.0399 84.5999 21.7349 78.0299C23.5349 78.4349 25.4699 78.6147 27.4949 78.6147H67.05C78.93 78.6147 86.8499 72.6749 86.8499 58.8148V35.6397C86.8499 33.5247 86.67 31.6349 86.31 29.8799C94.86 31.6799 100.35 37.7097 100.35 49.1397Z" fill="#F47576"/>
<path d="M47.25 59.1302C53.8111 59.1302 59.1301 53.8113 59.1301 47.2502C59.1301 40.689 53.8111 35.3701 47.25 35.3701C40.6889 35.3701 35.3699 40.689 35.3699 47.2502C35.3699 53.8113 40.6889 59.1302 47.25 59.1302Z" fill="#F47576"/>
<path d="M21.51 37.125C19.665 37.125 18.135 38.655 18.135 40.5V54C18.135 55.845 19.665 57.375 21.51 57.375C23.355 57.375 24.885 55.845 24.885 54V40.5C24.885 38.655 23.4 37.125 21.51 37.125Z" fill="#F47576"/>
<path d="M72.945 37.125C71.1 37.125 69.57 38.655 69.57 40.5V54C69.57 55.845 71.1 57.375 72.945 57.375C74.79 57.375 76.32 55.845 76.32 54V40.5C76.32 38.655 74.835 37.125 72.945 37.125Z" fill="#F47576"/>
</svg>
