<svg width="48" height="48" viewBox="0 0 48 48" fill="none" xmlns="http://www.w3.org/2000/svg">
<g filter="url(#filter0_d_2143_48685)">
<rect x="2" y="1" width="44" height="44" rx="8" fill="#1570EF"/>
<rect x="2.5" y="1.5" width="43" height="43" rx="7.5" stroke="#1570EF"/>
<g opacity="0.32">
<path d="M24.0001 21.3331C30.2719 21.3331 33.9698 21.1972 35.8241 21.099C36.6823 21.0536 37.3334 20.3434 37.3334 19.4839V17.9255C37.3334 17.3259 37.1402 16.7376 36.7155 16.3143C34.2245 13.8311 28.4996 10.6308 24.6201 9.78391C24.2101 9.69443 23.79 9.69443 23.3801 9.78391C19.5005 10.6308 13.7757 13.8311 11.2846 16.3143C10.8599 16.7376 10.6667 17.3259 10.6667 17.9255V19.4839C10.6667 20.3434 11.3178 21.0536 12.176 21.099C14.0304 21.1972 17.7283 21.3331 24.0001 21.3331Z" fill="white"/>
<path d="M10.905 31.9713C11.0783 31.4684 11.5818 31.2396 12.1129 31.2095C13.4922 31.1312 16.869 30.9998 24.0001 30.9998C31.1311 30.9998 34.5079 31.1312 35.8873 31.2095C36.4183 31.2396 36.9219 31.4684 37.0951 31.9713C37.2235 32.344 37.3334 32.8898 37.3334 33.6664C37.3334 34.4431 37.2235 34.9889 37.0951 35.3616C36.9219 35.8645 36.4183 36.0932 35.8873 36.1234C34.5079 36.2017 31.1311 36.3331 24.0001 36.3331C16.869 36.3331 13.4922 36.2017 12.1129 36.1234C11.5818 36.0932 11.0783 35.8645 10.905 35.3616C10.7767 34.9889 10.6667 34.4431 10.6667 33.6664C10.6667 32.8898 10.7767 32.344 10.905 31.9713Z" fill="white"/>
</g>
<path d="M23.9999 19.0003C25.4727 19.0003 26.6666 17.8064 26.6666 16.3337C26.6666 14.8609 25.4727 13.667 23.9999 13.667C22.5272 13.667 21.3333 14.8609 21.3333 16.3337C21.3333 17.8064 22.5272 19.0003 23.9999 19.0003Z" fill="white"/>
<path d="M26.5955 21.3254C25.7842 21.3307 24.9197 21.3336 23.9999 21.3336C23.0801 21.3336 22.2157 21.3307 21.4043 21.3254C21.3702 22.1938 21.3333 23.7351 21.3333 26.3337C21.3333 28.6263 21.362 30.096 21.3922 31.0066C22.1999 31.0026 23.0678 31.0003 23.9999 31.0003C24.932 31.0003 25.7999 31.0026 26.6076 31.0066C26.6378 30.096 26.6666 28.6263 26.6666 26.3337C26.6666 23.7351 26.6296 22.1938 26.5955 21.3254Z" fill="white"/>
<path d="M29.4055 21.2953C29.3711 22.158 29.3333 23.7048 29.3333 26.3337C29.3333 28.6461 29.3625 30.1213 29.393 31.0301C31.7956 31.0594 33.4695 31.1059 34.6027 31.1501C34.6346 30.2531 34.6666 28.7508 34.6666 26.3337C34.6666 23.5583 34.6244 21.9889 34.5886 21.1573C33.3494 21.2086 31.6491 21.2611 29.4055 21.2953Z" fill="white"/>
<path d="M13.4112 21.1573C14.6504 21.2086 16.3508 21.2611 18.5944 21.2953C18.6288 22.158 18.6666 23.7048 18.6666 26.3337C18.6666 28.6461 18.6373 30.1213 18.6069 31.0301C16.2042 31.0594 14.5303 31.1059 13.3971 31.1501C13.3653 30.2531 13.3333 28.7508 13.3333 26.3337C13.3333 23.5583 13.3754 21.9889 13.4112 21.1573Z" fill="white"/>
</g>
<defs>
<filter id="filter0_d_2143_48685" x="0" y="0" width="48" height="48" filterUnits="userSpaceOnUse" color-interpolation-filters="sRGB">
<feFlood flood-opacity="0" result="BackgroundImageFix"/>
<feColorMatrix in="SourceAlpha" type="matrix" values="0 0 0 0 0 0 0 0 0 0 0 0 0 0 0 0 0 0 127 0" result="hardAlpha"/>
<feOffset dy="1"/>
<feGaussianBlur stdDeviation="1"/>
<feComposite in2="hardAlpha" operator="out"/>
<feColorMatrix type="matrix" values="0 0 0 0 0.0627451 0 0 0 0 0.0941176 0 0 0 0 0.156863 0 0 0 0.05 0"/>
<feBlend mode="normal" in2="BackgroundImageFix" result="effect1_dropShadow_2143_48685"/>
<feBlend mode="normal" in="SourceGraphic" in2="effect1_dropShadow_2143_48685" result="shape"/>
</filter>
</defs>
</svg>
