<svg width="16" height="16" viewBox="0 0 16 16" fill="none" xmlns="http://www.w3.org/2000/svg">
<path opacity="0.4" d="M2.66 9.77342L1.64667 8.76011C1.23334 8.34678 1.23334 7.66677 1.64667 7.25344L2.66 6.24009C2.83333 6.06676 2.97333 5.72676 2.97333 5.48676V4.05345C2.97333 3.46678 3.45333 2.98676 4.04 2.98676H5.47333C5.71333 2.98676 6.05333 2.84678 6.22667 2.67344L7.23999 1.6601C7.65333 1.24676 8.33333 1.24676 8.74667 1.6601L9.76001 2.67344C9.93335 2.84678 10.2733 2.98676 10.5133 2.98676H11.9467C12.5333 2.98676 13.0133 3.46678 13.0133 4.05345V5.48676C13.0133 5.72676 13.1533 6.06676 13.3267 6.24009L14.34 7.25344C14.7533 7.66677 14.7533 8.34678 14.34 8.76011L13.3267 9.77342C13.1533 9.94675 13.0133 10.2868 13.0133 10.5268V11.9601C13.0133 12.5468 12.5333 13.0268 11.9467 13.0268H10.5133C10.2733 13.0268 9.93335 13.1668 9.76001 13.3401L8.74667 14.3535C8.33333 14.7668 7.65333 14.7668 7.23999 14.3535L6.22667 13.3401C6.05333 13.1668 5.71333 13.0268 5.47333 13.0268H4.04C3.45333 13.0268 2.97333 12.5468 2.97333 11.9601V10.5268C2.97333 10.2801 2.83333 9.94009 2.66 9.77342Z" fill="#163300"/>
<path d="M10 10.6668C9.62667 10.6668 9.32666 10.3668 9.32666 10.0002C9.32666 9.6335 9.62666 9.3335 9.99333 9.3335C10.36 9.3335 10.66 9.6335 10.66 10.0002C10.66 10.3668 10.3667 10.6668 10 10.6668Z" fill="#163300"/>
<path d="M6.00659 6.66683C5.63326 6.66683 5.33325 6.36683 5.33325 6.00016C5.33325 5.6335 5.63325 5.3335 5.99992 5.3335C6.36659 5.3335 6.66658 5.6335 6.66658 6.00016C6.66658 6.36683 6.37326 6.66683 6.00659 6.66683Z" fill="#163300"/>
<path d="M6.00004 10.4998C5.87337 10.4998 5.74671 10.4532 5.64671 10.3532C5.45338 10.1598 5.45338 9.8398 5.64671 9.64647L9.64671 5.64646C9.84004 5.45313 10.16 5.45313 10.3534 5.64646C10.5467 5.8398 10.5467 6.15984 10.3534 6.35317L6.35337 10.3532C6.25337 10.4532 6.12671 10.4998 6.00004 10.4998Z" fill="#163300"/>
</svg>
