<svg width="40" height="40" viewBox="0 0 40 40" fill="none" xmlns="http://www.w3.org/2000/svg">
<path opacity="0.32" fill-rule="evenodd" clip-rule="evenodd" d="M29.5926 3.83481C28.9198 3.52302 28.5287 3.48212 28.4387 3.47675C26.2766 3.39144 23.5141 3.3335 19.9983 3.3335C12.8739 3.3335 8.84258 3.57142 6.63286 3.793C5.06694 3.95004 3.94821 5.06877 3.79117 6.6347C3.56959 8.84441 3.33167 12.8757 3.33167 20.0002C3.33167 27.7414 3.61257 32.6736 3.8482 35.4491C3.95711 36.7319 5.40904 37.2968 6.39808 36.4726L9.165 34.1668L11.4435 36.4453C12.044 37.0458 13 37.0988 13.6632 36.5682L16.665 34.1668L18.8198 36.3217C19.4707 36.9725 20.526 36.9725 21.1768 36.3217L23.3317 34.1668L26.3335 36.5682C26.9967 37.0988 27.9527 37.0458 28.5532 36.4453L30.8317 34.1668L33.5986 36.4726C34.5876 37.2968 36.0396 36.7319 36.1485 35.4491C36.3841 32.6736 36.665 27.7414 36.665 20.0002C36.665 16.455 36.6061 13.6756 36.5196 11.5055C35.7905 11.5952 34.7601 11.6676 33.3333 11.6676C32.2841 11.6676 31.4494 11.6284 30.791 11.5721C29.3576 11.4493 28.4264 10.3534 28.3713 8.91583C28.3485 8.32092 28.3333 7.58142 28.3333 6.66758C28.3333 5.19013 28.3731 4.16836 28.4202 3.47673C28.4202 3.47673 28.8208 3.47742 29.5926 3.83481ZM19.4314 25.4456C20.3385 25.4456 20.9937 25.2922 21.3968 24.9855C21.8167 24.6788 22.0267 24.3031 22.0267 23.8584C22.0267 23.4597 21.8672 23.1377 21.548 22.8922C21.2288 22.6469 20.7501 22.4322 20.1117 22.2482L18.7258 21.8342C18.0371 21.6347 17.4155 21.4201 16.8612 21.1901C16.3068 20.96 15.8365 20.684 15.4501 20.3619C15.0637 20.0399 14.7613 19.6565 14.543 19.2118C14.3246 18.7671 14.2154 18.238 14.2154 17.6246C14.2154 16.5817 14.5682 15.7153 15.2737 15.0252C15.9792 14.3352 16.9872 13.8751 18.2975 13.6451V12.9908C18.2975 12.3105 18.7687 11.7025 19.4485 11.6726C19.5357 11.6687 19.6226 11.6668 19.7086 11.6668C20.3301 11.6668 20.7752 11.7665 21.0441 11.9658C21.3297 12.1652 21.4724 12.5256 21.4724 13.047V13.5531C22.5475 13.6604 23.4211 13.8981 24.093 14.2662C24.7649 14.6188 25.1009 15.0866 25.1009 15.6693C25.1009 15.9289 25.0322 16.1692 24.9135 16.3873C24.5974 16.9673 23.8085 16.9246 23.1827 16.7133C23.0037 16.6529 22.8117 16.5963 22.6063 16.5434C21.968 16.3594 21.2708 16.2674 20.5149 16.2674C19.675 16.2674 19.045 16.3977 18.6251 16.6585C18.2218 16.9038 18.0202 17.2258 18.0202 17.6246C18.0202 17.9467 18.1547 18.2073 18.4235 18.4067C18.709 18.6061 19.1374 18.7901 19.7086 18.9587L21.1197 19.3498C22.6315 19.7792 23.7907 20.3466 24.597 21.052C25.4201 21.7574 25.8317 22.7082 25.8317 23.9044C25.8317 24.9625 25.4621 25.8597 24.7229 26.5957C23.9838 27.3165 22.9003 27.7996 21.4724 28.0449V28.6762C21.4724 29.3566 21.0011 29.9646 20.3214 29.9944C20.2342 29.9982 20.1473 30.0002 20.0613 30.0002C19.4397 30.0002 18.9862 29.9005 18.7007 29.7012C18.4318 29.5017 18.2975 29.1414 18.2975 28.62V28.1599C17.0712 28.0372 16.0717 27.7689 15.2989 27.3548C14.543 26.9254 14.165 26.3887 14.165 25.7446C14.165 25.3684 14.3094 25.0417 14.5411 24.767C14.9558 24.2753 15.6943 24.3972 16.2657 24.6927C16.5095 24.8187 16.7752 24.9392 17.0627 25.0545C17.7515 25.3152 18.5411 25.4456 19.4314 25.4456Z" fill="#ED3237"/>
<path d="M36.5212 11.5052C35.792 11.5949 34.7611 11.6674 33.3333 11.6674C32.2841 11.6674 31.4494 11.6282 30.791 11.5719C29.3576 11.4492 28.4264 10.3532 28.3713 8.91566C28.3485 8.32075 28.3333 7.58125 28.3333 6.66742C28.3333 5.18996 28.3731 4.1682 28.4202 3.47656C28.4202 3.47656 30.1454 3.47954 33.3333 6.66742C36.5212 9.85533 36.5212 11.5052 36.5212 11.5052Z" fill="#ED3237"/>
<path d="M19.433 25.4454C20.3401 25.4454 20.9953 25.2921 21.3985 24.9853C21.8184 24.6787 22.0284 24.3029 22.0284 23.8582C22.0284 23.4595 21.8688 23.1375 21.5496 22.8921C21.2305 22.6467 20.7517 22.432 20.1134 22.248L18.7275 21.834C18.0387 21.6346 17.4171 21.4199 16.8628 21.1899C16.3085 20.9598 15.8381 20.6838 15.4517 20.3617C15.0654 20.0397 14.763 19.6563 14.5446 19.2117C14.3262 18.7669 14.217 18.2378 14.217 17.6244C14.217 16.5816 14.5698 15.7152 15.2754 15.0251C15.9809 14.335 16.9888 13.8749 18.2991 13.6449V12.9907C18.2991 12.3103 18.7704 11.7023 19.4501 11.6724C19.5374 11.6686 19.6242 11.6667 19.7102 11.6667C20.3317 11.6667 20.7769 11.7663 21.0457 11.9657C21.3313 12.1651 21.474 12.5254 21.474 13.0468V13.5529C22.5491 13.6602 23.4227 13.8979 24.0946 14.266C24.7665 14.6187 25.1025 15.0864 25.1025 15.6692C25.1025 15.9287 25.0339 16.1691 24.9151 16.3872C24.599 16.9672 23.8101 16.9244 23.1843 16.7132C23.0054 16.6527 22.8133 16.5962 22.608 16.5432C21.9696 16.3592 21.2725 16.2672 20.5165 16.2672C19.6766 16.2672 19.0466 16.3976 18.6267 16.6583C18.2235 16.9037 18.0219 17.2257 18.0219 17.6244C18.0219 17.9465 18.1563 18.2072 18.4251 18.4065C18.7106 18.6059 19.139 18.7899 19.7102 18.9586L21.1213 19.3497C22.6331 19.779 23.7923 20.3464 24.5986 21.0518C25.4217 21.7572 25.8333 22.7081 25.8333 23.9042C25.8333 24.9623 25.4637 25.8595 24.7245 26.5956C23.9855 27.3163 22.902 27.7994 21.474 28.0447V28.676C21.474 29.3564 21.0027 29.9644 20.323 29.9942C20.2358 29.9981 20.149 30 20.063 30C19.4414 30 18.9879 29.9003 18.7023 29.701C18.4335 29.5016 18.2991 29.1412 18.2991 28.6198V28.1597C17.0728 28.0371 16.0733 27.7687 15.3005 27.3547C14.5446 26.9252 14.1666 26.3885 14.1666 25.7444C14.1666 25.3682 14.311 25.0416 14.5427 24.7668C14.9575 24.2752 15.696 24.3971 16.2674 24.6925C16.5111 24.8185 16.7768 24.9391 17.0644 25.0543C17.7531 25.3151 18.5427 25.4454 19.433 25.4454Z" fill="#ED3237"/>
</svg>
