<svg width="36" height="36" viewBox="0 0 36 36" fill="none" xmlns="http://www.w3.org/2000/svg">
<path opacity="0.4" d="M18 26.0248C19.3503 26.0248 20.445 24.9301 20.445 23.5798C20.445 22.2294 19.3503 21.1348 18 21.1348C16.6497 21.1348 15.555 22.2294 15.555 23.5798C15.555 24.9301 16.6497 26.0248 18 26.0248Z" fill="#F04648"/>
<path d="M24.975 14.1602H11.025C4.875 14.1602 3 16.0352 3 22.1852V24.9752C3 31.1252 4.875 33.0002 11.025 33.0002H24.975C31.125 33.0002 33 31.1252 33 24.9752V22.1852C33 16.0352 31.125 14.1602 24.975 14.1602ZM18 28.1102C15.495 28.1102 13.47 26.0702 13.47 23.5802C13.47 21.0902 15.495 19.0502 18 19.0502C20.505 19.0502 22.53 21.0902 22.53 23.5802C22.53 26.0702 20.505 28.1102 18 28.1102Z" fill="#F04648"/>
<path opacity="0.4" d="M10.68 14.175V12.42C10.68 8.025 11.925 5.1 18 5.1C24.495 5.1 25.32 8.265 25.32 11.025C25.32 11.61 25.785 12.075 26.37 12.075C26.955 12.075 27.42 11.61 27.42 11.025C27.42 5.7 24.255 3 18 3C9.55499 3 8.57999 8.37 8.57999 12.42V14.295C9.20999 14.22 9.91499 14.175 10.68 14.175Z" fill="#F04648"/>
</svg>
