<svg width="120" height="120" viewBox="0 0 120 120" fill="none" xmlns="http://www.w3.org/2000/svg">
<path opacity="0.48" d="M60.0001 78.9486C59.9186 93.3252 59.7552 115.324 59.9994 115.367C60.3628 115.367 60.7263 115.314 61.0783 115.209L94.8283 105.084C95.6007 104.852 96.2779 104.378 96.7592 103.731C97.2405 103.083 97.5003 102.298 97.5001 101.492V66.7817L60.0001 78.9486Z" fill="#C4CDD5"/>
<path opacity="0.48" d="M59.9217 78.9237L22.5002 66.7822L22.5001 101.492C22.4999 102.299 22.7597 103.084 23.241 103.731C23.7223 104.378 24.3995 104.853 25.1719 105.085L58.9219 115.21C59.2735 115.315 59.6366 115.367 59.9996 115.367C59.755 115.346 59.8401 93.3073 59.9217 78.9237Z" fill="#DFE3E8"/>
<path opacity="0.8" d="M60 78.9491L22.5 66.7822L12.9844 80.8897C12.8217 81.1305 12.7172 81.4057 12.6792 81.6938C12.6411 81.9818 12.6705 82.2748 12.7651 82.5495C12.8596 82.8243 13.0167 83.0733 13.224 83.2769C13.4313 83.4805 13.683 83.6332 13.9594 83.7229L47.7 94.6841C48.0866 94.8098 48.5035 94.8064 48.8881 94.6745C49.2726 94.5426 49.6038 94.2894 49.8319 93.9529L60 78.9491Z" fill="url(#paint0_linear_1890_16413)"/>
<path opacity="0.8" d="M97.5 66.7822L60 78.9491L70.1681 93.9529C70.3962 94.2894 70.7274 94.5426 71.1119 94.6745C71.4964 94.8064 71.9134 94.8098 72.3 94.6841L106.041 83.7229C106.317 83.6332 106.569 83.4805 106.776 83.2769C106.983 83.0733 107.14 82.8243 107.235 82.5495C107.329 82.2748 107.359 81.9818 107.321 81.6938C107.283 81.4057 107.178 81.1305 107.016 80.8897L97.5 66.7822Z" fill="url(#paint1_linear_1890_16413)"/>
<path opacity="0.64" d="M50.9199 41.8196C50.6914 41.4841 50.3603 41.2318 49.9762 41.1006C49.5921 40.9695 49.1758 40.9664 48.7899 41.0921L15.0474 52.0552C14.7708 52.1443 14.5188 52.2966 14.3113 52.4999C14.1038 52.7033 13.9465 52.9523 13.8519 53.227C13.7573 53.5017 13.728 53.7947 13.7662 54.0827C13.8045 54.3708 13.9093 54.6459 14.0724 54.8864L22.4968 67.3777L59.9968 55.1696L50.9199 41.8196Z" fill="url(#paint2_linear_1890_16413)"/>
<path opacity="0.64" d="M105.924 54.2907C106.087 54.05 106.191 53.7749 106.229 53.4871C106.267 53.1993 106.237 52.9066 106.142 52.6321C106.048 52.3576 105.891 52.1088 105.684 51.9053C105.477 51.7019 105.225 51.5492 104.949 51.4595L71.2069 40.4963C70.8209 40.3707 70.4047 40.3738 70.0206 40.5049C69.6365 40.6361 69.3053 40.8884 69.0769 41.2238L60 54.5739L97.5 66.782L105.924 54.2907Z" fill="url(#paint3_linear_1890_16413)"/>
<path opacity="0.48" d="M97.5 66.7819L60 54.5737L22.5 66.7819L60 78.9487L97.5 66.7819Z" fill="#C4CDD5"/>
<path opacity="0.48" d="M60.0001 66.6763V55L22.5001 67.2081L60.0001 79.375V66.6763Z" fill="#C4CDD5"/>
<path d="M57.9995 12.8082C60.0282 1.32012 77.6101 2.06262 67.3744 12.8082H57.9995Z" fill="#919EAB" fill-opacity="0.12"/>
<path d="M57.9995 15.7182C60.0282 27.2045 77.6101 26.4639 67.3744 15.7182H57.9995Z" fill="#919EAB" fill-opacity="0.12"/>
<path d="M52.4663 59.9586C51.7209 59.4741 51.0161 58.9298 50.3588 58.3311C49.9903 58.0091 49.5105 57.8438 49.0219 57.8707C48.5332 57.8976 48.0745 58.1145 47.7436 58.475C47.4126 58.8356 47.2358 59.3112 47.2508 59.8003C47.2658 60.2895 47.4714 60.7534 47.8238 61.093C48.5907 61.798 49.455 62.4692 50.415 63.0974C50.8312 63.3606 51.3343 63.4495 51.8155 63.3449C52.2967 63.2404 52.7174 62.9507 52.9868 62.5384C53.2562 62.1262 53.3526 61.6246 53.2552 61.1419C53.1578 60.6591 52.8745 60.2341 52.4663 59.9586ZM46.6238 54.1986C46.0909 53.4806 45.6181 52.7199 45.21 51.9242C44.9845 51.4809 44.5921 51.1453 44.1192 50.9913C43.6463 50.8373 43.1315 50.8775 42.6882 51.103C42.2448 51.3285 41.9093 51.7209 41.7552 52.1938C41.6012 52.6668 41.6414 53.1815 41.8669 53.6249C42.3432 54.5586 42.9207 55.4942 43.605 56.4224C43.9036 56.8127 44.3435 57.0702 44.83 57.1395C45.3165 57.2088 45.8107 57.0843 46.2064 56.7929C46.6021 56.5014 46.8675 56.0663 46.9455 55.5811C47.0236 55.0959 46.9081 54.5995 46.6238 54.1986ZM43.8825 46.5467C43.9013 45.7911 44.0119 45.058 44.2144 44.3549C44.2823 44.1181 44.3028 43.8703 44.2749 43.6256C44.2469 43.3809 44.1711 43.1442 44.0517 42.9288C43.9322 42.7134 43.7715 42.5237 43.5788 42.3704C43.386 42.2171 43.1649 42.1033 42.9282 42.0355C42.6914 41.9677 42.4436 41.9471 42.1989 41.975C41.9543 42.003 41.7175 42.0788 41.5021 42.1983C41.2867 42.3177 41.097 42.4784 40.9437 42.6712C40.7904 42.8639 40.6766 43.085 40.6088 43.3217C40.3188 44.3413 40.1588 45.3933 40.1325 46.453C40.1201 46.9503 40.3057 47.4321 40.6486 47.7925C40.9914 48.153 41.4634 48.3624 41.9607 48.3749C42.458 48.3873 42.9398 48.2017 43.3002 47.8588C43.6606 47.516 43.8701 47.044 43.8825 46.5467ZM46.7663 40.2842C47.2482 39.838 47.7882 39.4255 48.3788 39.0524C48.5871 38.921 48.7675 38.7499 48.9097 38.5488C49.0519 38.3477 49.153 38.1206 49.2075 37.8804C49.2619 37.6402 49.2684 37.3917 49.2268 37.149C49.1851 36.9063 49.0961 36.6741 48.9647 36.4658C48.8334 36.2575 48.6623 36.0771 48.4612 35.9349C48.2601 35.7927 48.033 35.6915 47.7928 35.6371C47.5526 35.5827 47.3041 35.5762 47.0613 35.6178C46.8186 35.6595 46.5865 35.7485 46.3782 35.8799C45.6087 36.3633 44.8856 36.9169 44.2182 37.5336C43.8626 37.8738 43.655 38.3401 43.6402 38.8319C43.6253 39.3238 43.8044 39.8017 44.1388 40.1627C44.4732 40.5237 44.9361 40.7387 45.4277 40.7615C45.9192 40.7842 46.4 40.6128 46.7663 40.2842ZM53.7394 37.0499C54.7291 36.8691 55.7304 36.7588 56.7357 36.7199C57.2208 36.6824 57.6724 36.458 57.9953 36.0941C58.3182 35.7301 58.4871 35.2549 58.4664 34.7688C58.4457 34.2827 58.2371 33.8236 57.8845 33.4883C57.5319 33.1531 57.0628 32.9679 56.5763 32.9717C55.3388 33.0242 54.165 33.1574 53.0569 33.3617C52.5678 33.4522 52.1348 33.7333 51.8529 34.1432C51.5711 34.553 51.4636 35.058 51.5541 35.5471C51.6446 36.0361 51.9257 36.4692 52.3355 36.7511C52.7453 37.0329 53.2503 37.1404 53.7394 37.0499ZM63.5119 36.9392C65.1113 36.958 66.6 36.9017 67.9819 36.7799C68.4727 36.7302 68.9241 36.4891 69.2383 36.1088C69.5525 35.7286 69.7043 35.2398 69.6606 34.7485C69.617 34.2571 69.3814 33.8028 69.0051 33.4839C68.6287 33.165 68.1419 33.0073 67.65 33.0449C66.3844 33.1555 65.0213 33.208 63.555 33.1892C63.0578 33.1835 62.5786 33.3756 62.2229 33.7232C61.8672 34.0708 61.6642 34.5454 61.6585 35.0427C61.6528 35.54 61.8448 36.0191 62.1924 36.3748C62.54 36.7305 63.0146 36.9335 63.5119 36.9392ZM74.145 35.6305C76.0013 35.0624 77.5688 34.3349 78.8813 33.5005C79.089 33.3681 79.2686 33.1962 79.4098 32.9944C79.5511 32.7927 79.6512 32.5651 79.7044 32.3246C79.7577 32.0842 79.7631 31.8356 79.7203 31.5931C79.6775 31.3505 79.5874 31.1188 79.455 30.9111C79.3227 30.7034 79.1507 30.5238 78.949 30.3826C78.7472 30.2414 78.5196 30.1412 78.2792 30.088C78.0387 30.0347 77.7902 30.0293 77.5476 30.0721C77.3051 30.1149 77.0734 30.205 76.8657 30.3374C75.6757 31.0752 74.3916 31.6491 73.0482 32.0436C72.5725 32.1891 72.1741 32.5175 71.9407 32.9567C71.7072 33.3959 71.6577 33.9098 71.8032 34.3855C71.9486 34.8611 72.2771 35.2595 72.7163 35.493C73.1554 35.7265 73.6694 35.7759 74.145 35.6305ZM83.6888 28.2524C84.5325 26.5 84.9237 24.5642 84.8269 22.6217C84.8155 22.3758 84.7557 22.1344 84.651 21.9116C84.5463 21.6887 84.3987 21.4886 84.2166 21.3228C84.0346 21.1569 83.8217 21.0286 83.5901 20.945C83.3584 20.8615 83.1126 20.8244 82.8666 20.8358C82.6206 20.8473 82.3793 20.907 82.1564 21.0117C81.9336 21.1165 81.7335 21.264 81.5676 21.4461C81.4018 21.6281 81.2734 21.841 81.1899 22.0727C81.1063 22.3043 81.0692 22.5501 81.0807 22.7961C81.1481 24.1153 80.8838 25.4304 80.3119 26.6211C80.1206 27.0654 80.1081 27.5664 80.2772 28.0196C80.4462 28.4728 80.7837 28.8432 81.2193 29.0536C81.6549 29.264 82.1548 29.2982 82.6149 29.1489C83.075 28.9996 83.4597 28.6784 83.6888 28.2524ZM82.4944 15.9917C81.1275 14.1449 79.2732 12.8586 77.2519 12.4442C76.7722 12.363 76.2797 12.4713 75.8783 12.7462C75.4768 13.021 75.1978 13.4411 75.1001 13.9177C75.0023 14.3943 75.0935 14.8902 75.3543 15.301C75.6151 15.7117 76.0252 16.005 76.4982 16.1192C77.6644 16.3574 78.6919 17.158 79.4813 18.2249C79.6279 18.4227 79.8121 18.5897 80.0233 18.7164C80.2344 18.8431 80.4685 18.9269 80.7121 18.9631C80.9557 18.9993 81.204 18.9872 81.4429 18.9275C81.6818 18.8677 81.9066 18.7615 82.1044 18.6149C82.3023 18.4682 82.4693 18.2841 82.596 18.0729C82.7226 17.8617 82.8065 17.6277 82.8427 17.3841C82.8789 17.1405 82.8668 16.8922 82.807 16.6533C82.7473 16.4144 82.6411 16.1896 82.4944 15.9917Z" fill="#919EAB" fill-opacity="0.24"/>
<path d="M57.8307 16.1567H70.3857C70.883 16.1567 71.3599 15.9592 71.7115 15.6076C72.0631 15.2559 72.2607 14.779 72.2607 14.2817C72.2607 13.7845 72.0631 13.3075 71.7115 12.9559C71.3599 12.6043 70.883 12.4067 70.3857 12.4067H57.8307C57.3479 12.4283 56.8921 12.6353 56.5581 12.9846C56.2241 13.3338 56.0377 13.7985 56.0377 14.2817C56.0377 14.765 56.2241 15.2296 56.5581 15.5789C56.8921 15.9282 57.3479 16.1351 57.8307 16.1567Z" fill="#919EAB" fill-opacity="0.24"/>
<defs>
<linearGradient id="paint0_linear_1890_16413" x1="22.7494" y1="66.7672" x2="27.9904" y2="101.442" gradientUnits="userSpaceOnUse">
<stop stop-color="#F4F6F8"/>
<stop offset="1" stop-color="#C4CDD5"/>
</linearGradient>
<linearGradient id="paint1_linear_1890_16413" x1="60.1519" y1="78.8216" x2="99.6838" y2="101.558" gradientUnits="userSpaceOnUse">
<stop stop-color="#F4F6F8"/>
<stop offset="1" stop-color="#C4CDD5"/>
</linearGradient>
<linearGradient id="paint2_linear_1890_16413" x1="17.588" y1="60.1008" x2="23.245" y2="33.434" gradientUnits="userSpaceOnUse">
<stop stop-color="#F4F6F8"/>
<stop offset="1" stop-color="#C4CDD5"/>
</linearGradient>
<linearGradient id="paint3_linear_1890_16413" x1="70.0387" y1="40.0445" x2="72.0615" y2="72.9596" gradientUnits="userSpaceOnUse">
<stop stop-color="#F4F6F8"/>
<stop offset="1" stop-color="#C4CDD5"/>
</linearGradient>
</defs>
</svg>
