<svg width="123" height="31" viewBox="0 0 123 31" fill="none" xmlns="http://www.w3.org/2000/svg">
<g clip-path="url(#clip0_435_2832)">
<path fill-rule="evenodd" clip-rule="evenodd" d="M55.251 0.5H52.194V15.836C52.194 16.786 52.194 18.378 52.867 19.803C53.49 21.117 54.873 22.685 57.925 22.685V19.602C55.652 19.602 55.251 18.388 55.251 15.836V8.91H59.864V5.585H55.25L55.251 0.5Z" fill="#305CCB"/>
<path d="M19.1119 5.754C18.3461 5.74367 17.5862 5.89 16.8789 6.184V0.5H13.8199V17.36C13.8199 19.512 15.2299 22.715 19.1119 22.715C22.1669 22.715 23.5499 21.149 24.1709 19.834C24.8439 18.41 24.8439 16.819 24.8439 15.868V12.602C24.8439 11.651 24.8439 10.059 24.1709 8.634C23.5499 7.32 22.1669 5.754 19.1119 5.754ZM21.7879 15.736V15.869C21.7879 18.412 21.3879 19.636 19.1119 19.636C17.9019 19.636 17.4679 19.108 17.2219 18.647C17.0234 18.245 16.909 17.8067 16.8859 17.359V11.112C16.9099 10.688 17.0159 10.272 17.1969 9.888C17.5559 9.159 18.1479 8.836 19.1189 8.836C21.3939 8.836 21.7949 10.049 21.7949 12.602V15.736H21.7879ZM33.8279 5.642C30.7759 5.642 29.3919 7.208 28.7719 8.524C28.0979 9.947 28.0979 11.539 28.0979 12.492V15.869C28.0979 16.82 28.0979 18.412 28.7719 19.836C29.3919 21.149 30.7759 22.716 33.8279 22.716C37.712 22.716 39.1199 19.514 39.1199 17.361H36.0629C36.0379 17.785 35.9329 18.201 35.7519 18.585C35.393 19.312 34.799 19.637 33.8279 19.637C31.5549 19.637 31.1539 18.422 31.1539 15.871V15.388H39.1199V11.008C39.1199 8.846 37.712 5.642 33.8279 5.642ZM36.0629 12.308H31.1559C31.1739 9.88 31.6089 8.722 33.8279 8.722C35.0379 8.722 35.4739 9.251 35.7179 9.71C35.9209 10.114 36.0379 10.556 36.0629 11.008V12.308ZM95.8949 5.72C92.0109 5.72 90.6029 8.925 90.6029 11.078V17.325C90.6029 19.478 92.0109 22.683 95.8949 22.683C98.9489 22.683 100.331 21.117 100.953 19.802C101.627 18.376 101.627 16.785 101.627 15.834V12.568C101.627 11.617 101.627 10.025 100.953 8.602C100.336 7.28 98.9489 5.72 95.8949 5.72ZM98.5689 15.702V15.836C98.5689 18.388 98.1689 19.602 95.8949 19.602C94.6849 19.602 94.2489 19.075 94.0049 18.614C93.8059 18.212 93.6919 17.774 93.6689 17.325V11.093C93.6889 10.64 93.8039 10.196 94.0049 9.79C94.2489 9.329 94.6779 8.802 95.8949 8.802C98.1679 8.802 98.5689 10.015 98.5689 12.568V15.702ZM110.172 5.72C106.289 5.72 104.879 8.925 104.879 11.078V17.325C104.879 19.478 106.289 22.683 110.172 22.683C113.226 22.683 114.607 21.117 115.23 19.802C115.903 18.376 115.903 16.785 115.903 15.834V12.568C115.903 11.617 115.903 10.025 115.23 8.602C114.607 7.28 113.226 5.72 110.172 5.72ZM112.845 15.702V15.836C112.845 18.388 112.445 19.602 110.172 19.602C108.962 19.602 108.526 19.075 108.282 18.614C108.081 18.2122 107.963 17.7736 107.937 17.325V11.093C107.96 10.639 108.077 10.195 108.282 9.79C108.526 9.329 108.955 8.802 110.172 8.802C112.445 8.802 112.845 10.015 112.845 12.568V15.702Z" fill="#305CCB"/>
<path fill-rule="evenodd" clip-rule="evenodd" d="M119.156 0.5H122.214V22.715H119.156V0.5Z" fill="#305CCB"/>
<path d="M86.677 8.60197C86.054 7.28597 84.673 5.71997 81.619 5.71997C77.735 5.71997 76.326 8.92497 76.326 11.078V17.325C76.326 17.541 76.3401 17.757 76.3661 17.971H76.3381V30.353H79.398V22.259C80.102 22.549 80.858 22.693 81.618 22.683C84.673 22.683 86.054 21.117 86.677 19.802C87.35 18.376 87.3501 16.785 87.3501 15.834V12.568C87.3501 11.617 87.35 10.025 86.677 8.60197ZM84.2921 12.703V15.836C84.2921 18.388 83.892 19.602 81.619 19.602C80.409 19.602 79.973 19.075 79.729 18.614C79.527 18.213 79.409 17.774 79.384 17.325V11.093C79.407 10.639 79.524 10.195 79.729 9.78997C79.973 9.32897 80.402 8.80197 81.619 8.80197C83.892 8.80197 84.2921 10.015 84.2921 12.568V12.703Z" fill="#305CCB"/>
<path fill-rule="evenodd" clip-rule="evenodd" d="M7.512 19.636H6.113C3.838 19.636 3.438 18.42 3.438 15.869V0.5H0.380005V15.87C0.380005 16.82 0.380005 18.412 1.053 19.836C1.674 21.149 3.057 22.716 6.111 22.716H10.571V11.516H7.51V19.636H7.512Z" fill="#305CCB"/>
<path fill-rule="evenodd" clip-rule="evenodd" d="M7.51196 5.82902H10.57V8.79702H7.51196V5.82902ZM70.016 13.35V15.836C70.016 18.388 69.616 19.602 67.342 19.602C66.132 19.602 65.696 19.075 65.452 18.614C65.2528 18.2147 65.1602 17.7707 65.183 17.325V5.58502H62.05V17.325C62.05 19.478 63.458 22.683 67.342 22.683C68.2601 22.702 69.1716 22.5251 70.016 22.164V23.505C70.016 26.058 69.616 27.271 67.342 27.271C66.132 27.271 65.696 26.744 65.452 26.283C65.2478 25.8773 65.1303 25.4336 65.107 24.98L63.579 24.995H62.049C62.049 27.147 63.459 30.351 67.342 30.351C70.396 30.351 71.778 28.785 72.4 27.469C73.073 26.046 73.073 24.454 73.073 23.503V5.58502H70.016V13.35ZM48.106 5.58502C45.052 5.58502 43.669 7.15102 43.048 8.46602C42.375 9.89002 42.375 11.483 42.375 12.434V22.71H45.432V12.44C45.432 9.88702 45.833 8.67202 48.108 8.67202V8.66402H50.128V5.58502H48.106Z" fill="#305CCB"/>
</g>
<defs>
<clipPath id="clip0_435_2832">
<rect width="122" height="30" fill="white" transform="translate(0.380005 0.5)"/>
</clipPath>
</defs>
</svg>
