<svg width="135" height="31" viewBox="0 0 135 31" fill="none" xmlns="http://www.w3.org/2000/svg">
<g clip-path="url(#clip0_435_2814)">
<path fill-rule="evenodd" clip-rule="evenodd" d="M41.4255 23.1921C39.0322 23.1921 36.8157 21.9988 36.0174 20.0589L38.8548 19.0148C39.3864 20.0897 40.3613 20.5664 41.3963 20.5664C42.5479 20.5664 43.3754 19.9697 43.3754 19.0148C43.3754 18.0607 42.4004 17.7315 40.7455 17.1649C38.5289 16.3899 36.609 15.345 36.609 12.8093C36.609 10.0344 38.9139 8.63198 41.4838 8.63198C43.4337 8.63198 45.2069 9.52694 46.0344 11.1085L43.4345 12.3918C42.9912 11.6152 42.2229 11.1677 41.3663 11.1677C40.4497 11.1677 39.6822 11.6152 39.6822 12.601C39.6822 13.5842 40.4797 13.8534 42.1938 14.4509C44.1728 15.1067 46.566 16.0616 46.566 18.8656C46.566 21.8197 43.9378 23.1921 41.4255 23.1921ZM56.7805 8.63198C60.5037 8.63198 63.636 11.8543 63.636 15.9125C63.636 19.9706 60.5037 23.1921 56.7805 23.1921C54.889 23.1921 53.3532 22.5063 52.2308 21.3722V29.9359H48.9209V8.9003H52.2308V10.4519C53.3532 9.31861 54.889 8.63198 56.7805 8.63198ZM56.2197 20.1189C58.5238 20.1189 60.3562 18.269 60.3562 15.9125C60.3562 13.5542 58.5238 11.7043 56.2197 11.7043C53.8848 11.7043 52.0233 13.5542 52.0233 15.9125C52.0233 18.269 53.8848 20.1189 56.2197 20.1189ZM72.6689 23.1921C68.5024 23.1921 65.3109 19.9698 65.3109 15.9125C65.3109 11.8543 68.5024 8.63198 72.6689 8.63198C76.7754 8.63198 79.966 11.8543 79.966 15.9125C79.966 19.9706 76.7754 23.1921 72.6689 23.1921ZM72.6689 20.0889C74.9138 20.0889 76.7754 18.239 76.7754 15.9125C76.7754 13.5851 74.9138 11.7352 72.6681 11.7352C70.334 11.7352 68.5016 13.5851 68.5016 15.9125C68.5016 18.239 70.3349 20.0889 72.6689 20.0889ZM88.9989 23.1921C84.8325 23.1921 81.641 19.9698 81.641 15.9125C81.641 11.8543 84.8325 8.63198 88.9989 8.63198C91.9829 8.63198 94.5237 10.3627 95.6169 12.9584L92.7804 14.2117C92.1304 12.7201 90.7422 11.7052 88.9989 11.7052C86.6057 11.7052 84.8325 13.5251 84.8325 15.9125C84.8325 18.299 86.6057 20.1189 88.9989 20.1189C90.7422 20.1189 92.1304 19.1048 92.7804 17.6132L95.6169 18.8656C94.5245 21.4622 91.9838 23.1921 88.9989 23.1921ZM110.677 8.90113L104.266 15.9125L110.677 22.9238H106.422L101.222 16.9566V22.9238H97.9127V0.545715H101.222V14.8675L106.422 8.90113H110.677ZM125.324 15.7633L125.295 16.4791H114.066C114.303 18.8656 116.046 20.4472 118.232 20.4472C119.769 20.4472 121.157 19.6723 121.956 18.329L124.615 19.4331C123.462 21.7605 121.128 23.1921 118.262 23.1921C113.919 23.1921 110.846 19.9698 110.846 15.9125C110.846 11.8543 113.978 8.63198 118.173 8.63198C122.162 8.63198 125.265 11.556 125.324 15.7633ZM118.203 11.3168C116.312 11.3168 114.864 12.421 114.304 14.1517H121.926C121.365 12.421 120.064 11.3168 118.203 11.3168ZM134.741 8.9003V11.6452H131.993V22.9246H128.684V11.6452H125.905V8.9003H128.684V3.85888H131.992V8.90113H134.741V8.9003Z" fill="#131A4C"/>
<path d="M26.2929 24.5995L15.9892 29.9326C15.4657 30.1992 14.8865 30.3382 14.2989 30.3382C13.7114 30.3382 13.1321 30.1992 12.6086 29.9326L2.30575 24.5995C1.25331 24.0546 0.600006 23.0405 0.600006 21.9438V5.73381C0.600006 4.04223 2.12076 2.6698 3.9965 2.6698H24.6013C26.4787 2.6698 27.9986 4.04223 27.9986 5.73381V21.9413C27.9986 23.0388 27.3487 24.0529 26.2929 24.5995ZM14.2993 12.5785C15.6659 12.5785 16.7742 11.4594 16.7742 10.0786C16.7742 8.6995 15.6659 7.58039 14.2993 7.58039C12.9327 7.58039 11.8244 8.6995 11.8244 10.0794C11.8244 11.4594 12.9327 12.5785 14.2993 12.5785Z" fill="#8144E5"/>
</g>
<defs>
<clipPath id="clip0_435_2814">
<rect width="134.16" height="29.9985" fill="white" transform="translate(0.600006 0.500732)"/>
</clipPath>
</defs>
</svg>
