<svg width="80" height="31" viewBox="0 0 80 31" fill="none" xmlns="http://www.w3.org/2000/svg">
<g id="5e00fc6210bfa706e3a23bd5_Combined%20Shape.svg" clip-path="url(#clip0_435_2827)">
<g id="Page-1">
<g id="Wordpress">
<path id="Combined-Shape" d="M44.0971 0.500793L44.099 0.862146C44.1 1.0611 44.1562 2.35273 44.2239 3.7328C44.2915 5.11288 44.3479 6.40408 44.3488 6.60219L44.3506 6.96229L46.6604 6.98497L48.9705 7.00746L48.4697 8.87872C48.1944 9.90795 47.9605 10.7594 47.9499 10.771C47.9392 10.7828 47.2976 10.6638 46.5243 10.5071L45.1183 10.222L45.0747 10.571C45.0507 10.763 44.8187 14.6328 44.5589 19.1706L44.0864 27.421L43.5975 28.229C42.7657 29.6031 42.1981 30.5149 42.1839 30.499C42.1766 30.4899 41.7474 29.7994 41.2305 28.9636L40.2905 27.4443L39.83 19.5225C39.5766 15.1654 39.3459 11.2907 39.317 10.912L39.2646 10.2233L37.8616 10.5077C37.0901 10.6643 36.4448 10.7781 36.4279 10.7609C36.4118 10.7449 36.2171 10.0511 35.9859 9.18677L35.9421 9.02284C35.6921 8.08396 35.4626 7.23687 35.4321 7.14044C35.3858 6.99331 35.3888 6.96957 36.7733 6.96575L40.0094 6.96502L40.1106 4.4345C40.1664 3.04287 40.2351 1.58842 40.2637 1.20249L40.3155 0.500793H44.0971ZM28.8597 6.63014C30.0483 6.76102 32.5849 7.35809 32.7927 7.556C32.9458 7.70159 32.3573 10.0842 32.0709 10.4781C31.9678 10.6197 31.9367 10.6185 31.4557 10.4514C26.8103 8.83817 23.0328 9.96488 23.8462 12.721C24.1486 13.7452 24.8658 14.2019 27.6938 15.1711C31.6395 16.5234 32.8973 17.597 33.3265 19.9786C34.3989 25.9281 28.2173 29.2466 20.1263 27.0646C19.6614 26.9392 19.2694 26.8289 19.2556 26.8197C19.1286 26.7359 19.9341 23.8379 20.1423 23.6282C20.1812 23.5893 20.4788 23.6549 20.8038 23.7742C25.0792 25.344 29.4694 24.1959 29.4694 21.508C29.4694 19.9941 28.7392 19.2493 26.4678 18.446C21.007 16.5146 19.5762 15.1511 19.7712 12.0635C20.0218 8.10118 23.4747 6.03705 28.8597 6.63014ZM9.2636 6.62741C12.7114 7.04927 14.6921 8.60119 15.4481 11.4729C15.6373 12.1916 15.6386 12.2395 15.666 19.4817L15.6935 26.7676L15.2466 26.8646C5.26693 29.0283 0.0480957 27.1312 0.0480957 21.3395C0.0480957 16.3362 4.52386 13.6977 11.4945 14.5919L11.9097 14.6452L11.8554 13.7608C11.7376 11.8448 11.2537 10.9267 10.0645 10.3628C8.47792 9.61046 5.61319 9.69491 2.5273 10.5853C2.19732 10.6804 1.57747 8.63123 1.66518 7.73499C1.73556 7.01691 6.6238 6.30429 9.2636 6.62741ZM72.8139 6.62741C76.2617 7.04927 78.2424 8.60119 78.9984 11.4729C79.1877 12.1916 79.1889 12.2395 79.2163 19.4817L79.2438 26.7676L78.7969 26.8646C68.8172 29.0283 63.5984 27.1312 63.5984 21.3395C63.5984 16.3362 68.0742 13.6977 75.0448 14.5919L75.46 14.6452L75.4057 13.7608C75.2879 11.8448 74.804 10.9267 73.6148 10.3628C72.0282 9.61046 69.1635 9.69491 66.0776 10.5853C65.7476 10.6804 65.1278 8.63123 65.2155 7.73499C65.2859 7.01691 70.1741 6.30429 72.8139 6.62741ZM62.2297 6.9751C62.3886 7.13498 62.4638 8.59384 62.3621 9.54386L62.2558 10.5374H61.2044C58.7724 10.5374 57.3162 11.3197 56.4547 13.0891C55.7128 14.612 55.7354 14.3759 55.6838 21.2059L55.6385 27.2388L55.3847 27.3111C55.0468 27.4077 52.9941 27.4313 52.2771 27.347L51.7062 27.2798L51.7277 17.1436L51.749 7.00746L52.0873 6.95073C52.5825 6.86774 54.9063 6.91754 55.0015 7.01313C55.0901 7.1022 55.2952 8.3974 55.3898 9.46591L55.4495 10.1382L55.6285 9.84366C56.3937 8.58565 57.7888 7.52301 59.2058 7.11922C59.8526 6.93498 62.0839 6.82867 62.2297 6.9751ZM75.0323 18.0762C73.5355 17.8409 70.9997 17.9623 70.0242 18.3161C67.0999 19.3764 67.2327 23.4952 70.2138 24.1881C71.1678 24.4098 74.0666 24.3398 75.0661 24.0711L75.3059 24.0066L75.3503 18.1262L75.0323 18.0762ZM11.482 18.0762C9.98516 17.8409 7.44936 17.9623 6.47384 18.3161C3.54959 19.3764 3.68242 23.4952 6.66347 24.1881C7.61748 24.4098 10.5162 24.3398 11.5158 24.0711L11.7555 24.0066L11.8 18.1262L11.482 18.0762Z" fill="#3076F8"/>
</g>
</g>
</g>
<defs>
<clipPath id="clip0_435_2827">
<rect width="79.71" height="29.9984" fill="white" transform="translate(0.0480957 0.500793)"/>
</clipPath>
</defs>
</svg>
