<svg width="152" height="114" viewBox="0 0 152 114" fill="none" xmlns="http://www.w3.org/2000/svg">
<g id="New Message_Monochromatic (1) 1">
<path id="Vector" opacity="0.18" d="M24.1116 25.1381C19.6418 26.0857 14.9956 27.1141 11.4073 29.944C8.37718 32.3314 3.65574 36.7388 2.22517 40.3198C-3.83501 55.4464 3.01667 73.8528 16.316 83.2663C22.5709 87.6939 30.3665 89.837 35.9878 95.0488C39.5431 98.3452 42.0332 102.708 45.8163 105.739C51.3439 110.163 58.8071 111.141 65.87 111.615C70.7769 111.948 75.8748 112.091 80.4273 110.225C83.7181 108.877 86.5058 106.565 89.2421 104.286L107.369 89.1484C110.282 86.7188 113.005 82.8494 116.798 82.8752C150.929 83.1194 153.23 42.9514 100.846 25.1601C96.2297 23.5918 93.0637 19.2322 88.7261 16.9973C79.7662 12.3787 69.4547 13.8753 60.4176 17.0707C48.9437 21.1384 36.019 22.6057 24.1116 25.1381Z" fill="#9BC7E5"/>
<path id="Vector_2" d="M113.368 39.0196V86.8693C113.368 87.4689 113.249 88.0625 113.02 88.6163C112.79 89.1701 112.453 89.6732 112.029 90.097C111.605 90.5207 111.102 90.8568 110.548 91.086C109.994 91.3152 109.4 91.4331 108.801 91.4328H37.2372C36.0264 91.4328 34.8652 90.9518 34.009 90.0957C33.1529 89.2395 32.6719 88.0783 32.6719 86.8675V39.0196C32.6714 37.8094 33.1514 36.6486 34.0064 35.7921C34.8615 34.9357 36.0215 34.4539 37.2317 34.4524H108.801C109.401 34.4522 109.995 34.5701 110.549 34.7996C111.103 35.029 111.607 35.3654 112.031 35.7896C112.455 36.2137 112.791 36.7173 113.021 37.2715C113.25 37.8257 113.368 38.4197 113.368 39.0196Z" fill="#4C6CA0"/>
<path id="Vector_3" d="M112.129 35.9123H33.7891L34.4245 35.4257C34.4538 35.4002 34.4845 35.3763 34.5163 35.354L71.7809 6.78669L72.9581 5.88501L110.875 34.9519L112.129 35.9123Z" fill="#4C6CA0"/>
<path id="Vector_4" d="M113.368 39.0196L112.415 39.7082L105.475 44.7345L71.7821 69.1387L39.3785 44.1836L32.6719 39.0196L32.7582 38.1326C32.9214 37.3009 33.3146 36.5317 33.8931 35.9124C34.0554 35.7356 34.2324 35.5728 34.422 35.4257C34.4513 35.4003 34.482 35.3764 34.5138 35.3541C35.3002 34.7668 36.2558 34.4504 37.2372 34.4524H108.801C109.935 34.4534 111.029 34.8764 111.869 35.6391C112.709 36.4017 113.235 37.4496 113.346 38.5788C113.36 38.7258 113.368 38.8727 113.368 39.0196Z" fill="#4C6CA0"/>
<path id="Vector_5" opacity="0.61" d="M34.4208 35.4221C34.232 35.5702 34.0552 35.7329 33.8919 35.9088H33.7891L34.4208 35.4221Z" fill="url(#paint0_linear_390_8591)"/>
<path id="Vector_6" d="M113.368 39.0195L112.415 39.71L105.475 44.7345L71.7821 69.1387L39.3785 44.1854L32.6719 39.0195L32.7582 38.1344C32.9705 37.0603 33.5608 36.098 34.422 35.422L34.5138 35.3522L71.7821 6.78669L72.9593 5.88501L110.876 34.9519C111.56 35.3 112.144 35.8152 112.576 36.4495C113.008 37.0838 113.273 37.8168 113.346 38.5806C113.361 38.7265 113.368 38.873 113.368 39.0195Z" fill="url(#paint1_linear_390_8591)"/>
<path id="Vector_7" d="M105.475 35.4846V44.7365L93.0407 53.735L90.1887 55.8064L71.7823 69.1388L54.4704 55.8064L51.7874 53.7423L39.375 44.1929V35.4846C39.375 35.1284 39.4452 34.7757 39.5815 34.4466C39.7178 34.1175 39.9176 33.8185 40.1694 33.5667C40.4213 33.3148 40.7203 33.115 41.0494 32.9787C41.3785 32.8424 41.7312 32.7722 42.0874 32.7722H102.765C103.483 32.7732 104.173 33.0593 104.681 33.5678C105.189 34.0764 105.475 34.7657 105.475 35.4846Z" fill="white"/>
<path id="Vector_8" opacity="0.05" d="M71.781 69.1388L41.873 91.4366H102.306L71.781 69.1388Z" fill="#000405"/>
<path id="Vector_9" d="M45.9843 18.7474C44.4784 15.5171 38.8223 16.0478 38.8223 16.0478C42.3115 13.9892 41.643 8.76091 41.6008 8.45239C43.1268 13.0104 48.3955 12.004 48.8675 11.9049C45.3691 12.768 45.9843 18.7474 45.9843 18.7474Z" fill="#4C6CA0"/>
<path id="Vector_10" d="M36.1774 25.3751C35.2206 23.322 31.623 23.6599 31.623 23.6599C33.9002 22.3064 33.3842 18.8228 33.3842 18.8228V18.843C34.3611 21.7243 37.7034 21.0852 38.0009 21.0228C35.7862 21.5737 36.1774 25.3751 36.1774 25.3751Z" fill="#4C6CA0"/>
<path id="Vector_11" d="M129.283 26.5356C129.283 26.5356 129.254 27.0664 129.217 27.7569C128.927 28.4033 128.655 28.9303 128.506 29.1929C128.207 29.7237 126.977 30.5592 125.752 30.7264C125.764 30.2948 125.725 29.8633 125.636 29.4409C125.159 28.26 129.283 26.5356 129.283 26.5356Z" fill="url(#paint2_linear_390_8591)"/>
<path id="Vector_12" opacity="0.22" d="M39.6324 15.7834L38.8262 16.0478C42.3154 13.9892 41.6469 8.76091 41.6047 8.45239C41.6598 8.70031 42.4715 12.1509 42.0289 13.284C41.4761 14.6999 39.6324 15.7834 39.6324 15.7834Z" fill="white"/>
<path id="Vector_13" opacity="0.22" d="M33.8658 22.0971C33.4397 22.6866 31.7466 23.5956 31.6309 23.6562C33.908 22.3028 33.392 18.8191 33.392 18.8191V18.8393C33.482 19.078 34.2808 21.5205 33.8658 22.0971Z" fill="white"/>
<path id="Vector_14" opacity="0.22" d="M32.8078 41.5318L70.2101 70.3103L71.7821 69.1387L32.6719 39.0195L32.8078 41.5318Z" fill="white"/>
<path id="Vector_15" opacity="0.22" d="M73.019 70.1249L113.367 41.0838V39.1023L71.7812 69.2196L73.019 70.1249Z" fill="white"/>
<path id="Vector_16" d="M96.3633 43.5959H47.3309C47.1954 43.5959 47.0612 43.5692 46.9359 43.5173C46.8107 43.4654 46.6969 43.3894 46.6011 43.2936C46.5053 43.1978 46.4293 43.084 46.3774 42.9588C46.3255 42.8335 46.2988 42.6993 46.2988 42.5638C46.2988 42.4283 46.3255 42.2941 46.3774 42.1689C46.4293 42.0436 46.5053 41.9299 46.6011 41.834C46.6969 41.7382 46.8107 41.6622 46.9359 41.6103C47.0612 41.5584 47.1954 41.5317 47.3309 41.5317H96.3633C96.4988 41.5317 96.6331 41.5584 96.7583 41.6103C96.8835 41.6622 96.9973 41.7382 97.0931 41.834C97.1889 41.9299 97.265 42.0436 97.3168 42.1689C97.3687 42.2941 97.3954 42.4283 97.3954 42.5638C97.3954 42.8375 97.2866 43.1 97.0931 43.2936C96.8995 43.4871 96.637 43.5959 96.3633 43.5959Z" fill="black" fill-opacity="0.08"/>
<path id="Vector_17" d="M96.3633 49.7021H47.3309C47.1954 49.7021 47.0612 49.6754 46.9359 49.6235C46.8107 49.5716 46.6969 49.4956 46.6011 49.3998C46.5053 49.304 46.4293 49.1902 46.3774 49.065C46.3255 48.9397 46.2988 48.8055 46.2988 48.67C46.2988 48.5345 46.3255 48.4003 46.3774 48.2751C46.4293 48.1498 46.5053 48.0361 46.6011 47.9402C46.6969 47.8444 46.8107 47.7684 46.9359 47.7165C47.0612 47.6646 47.1954 47.6379 47.3309 47.6379H96.3633C96.637 47.6379 96.8995 47.7467 97.0931 47.9402C97.2866 48.1338 97.3954 48.3963 97.3954 48.67C97.3954 48.9437 97.2866 49.2062 97.0931 49.3998C96.8995 49.5933 96.637 49.7021 96.3633 49.7021Z" fill="black" fill-opacity="0.08"/>
<path id="Vector_18" d="M93.0406 53.7422L90.1886 55.8063H54.4702L51.7891 53.7422H93.0406Z" fill="black" fill-opacity="0.08"/>
<path id="Vector_19" opacity="0.22" d="M113.345 38.6616L113.235 38.9701L112.414 39.791C112.991 38.7956 111.362 36.4854 111.362 36.4854L110.712 35.9987L108.759 34.5296L71.7812 6.86946L72.9584 5.96777L110.875 35.0328C111.558 35.3814 112.143 35.8966 112.575 36.5308C113.006 37.1651 113.271 37.8979 113.345 38.6616Z" fill="white"/>
</g>
<defs>
<linearGradient id="paint0_linear_390_8591" x1="33.8129" y1="36.4542" x2="34.5163" y2="34.5425" gradientUnits="userSpaceOnUse">
<stop offset="0.36" stop-color="#00272E"/>
<stop offset="0.75" stop-color="#3F80A1" stop-opacity="0.25"/>
<stop offset="1" stop-color="#69B9EB" stop-opacity="0"/>
</linearGradient>
<linearGradient id="paint1_linear_390_8591" x1="81.6639" y1="7.98771" x2="59.4432" y2="86.9538" gradientUnits="userSpaceOnUse">
<stop stop-opacity="0"/>
<stop offset="0.91" stop-opacity="0.8"/>
<stop offset="1"/>
</linearGradient>
<linearGradient id="paint2_linear_390_8591" x1="2685.21" y1="1949.44" x2="2664.62" y2="1746.45" gradientUnits="userSpaceOnUse">
<stop stop-color="#ECC4D7"/>
<stop offset="0.42" stop-color="#EFD4D1"/>
<stop offset="1" stop-color="#F2EAC9"/>
</linearGradient>
</defs>
</svg>
