<svg width="64" height="64" viewBox="0 0 64 64" fill="none" xmlns="http://www.w3.org/2000/svg">
<path d="M39.1237 20.6345L33.8784 25.8797L34.5856 29.4153L38.1211 30.1224L43.3663 24.8771L43.3668 24.8769C44.0161 26.4095 44.1713 28.1063 43.811 29.7312C43.4507 31.3561 42.5928 32.8283 41.3566 33.9428C40.1205 35.0572 38.5676 35.7586 36.9142 35.9492C35.2607 36.1398 33.589 35.8101 32.1317 35.0061L32.1318 35.0059L25.1211 43.1224C24.5584 43.6844 23.7955 44.0001 23.0001 43.9998C22.2048 43.9996 21.4421 43.6836 20.8797 43.1212C20.3173 42.5588 20.0012 41.796 20.001 41.0007C20.0008 40.2053 20.3164 39.4424 20.8784 38.8797L28.9949 31.869L28.9947 31.8691C28.1907 30.4118 27.861 28.7401 28.0516 27.0867C28.2422 25.4332 28.9436 23.8803 30.0581 22.6442C31.1725 21.408 32.6447 20.5501 34.2696 20.1898C35.8945 19.8295 37.5914 19.9847 39.1239 20.634L39.1237 20.6345Z" stroke="#2C2C2C" stroke-linecap="round" stroke-linejoin="round"/>
<rect x="0.5" y="0.5" width="63" height="63" rx="31.5" stroke="#2C2C2C"/>
</svg>
