<svg width="64" height="64" viewBox="0 0 64 64" fill="none" xmlns="http://www.w3.org/2000/svg">
<path d="M28 36H21C20.7348 36 20.4804 35.8946 20.2929 35.7071C20.1054 35.5196 20 35.2652 20 35V29C20 28.7348 20.1054 28.4804 20.2929 28.2929C20.4804 28.1054 20.7348 28 21 28H28V21C28 20.7348 28.1054 20.4804 28.2929 20.2929C28.4804 20.1054 28.7348 20 29 20H35C35.2652 20 35.5196 20.1054 35.7071 20.2929C35.8946 20.4804 36 20.7348 36 21V28H43C43.2652 28 43.5196 28.1054 43.7071 28.2929C43.8946 28.4804 44 28.7348 44 29V35C44 35.2652 43.8946 35.5196 43.7071 35.7071C43.5196 35.8946 43.2652 36 43 36H36V43C36 43.2652 35.8946 43.5196 35.7071 43.7071C35.5196 43.8946 35.2652 44 35 44H29C28.7348 44 28.4804 43.8946 28.2929 43.7071C28.1054 43.5196 28 43.2652 28 43V36Z" stroke="#2C2C2C" stroke-linecap="round" stroke-linejoin="round"/>
<rect x="0.5" y="0.5" width="63" height="63" rx="31.5" stroke="#2C2C2C"/>
</svg>
