<svg width="64" height="64" viewBox="0 0 64 64" fill="none" xmlns="http://www.w3.org/2000/svg">
<path d="M32.1327 32L32 44.8513" stroke="#2C2C2C" stroke-linecap="round" stroke-linejoin="round"/>
<path d="M43.5 37.9163V26.0832C43.5 25.9061 43.453 25.7322 43.3637 25.5793C43.2745 25.4263 43.1462 25.2998 42.9921 25.2127L32.4921 19.2779C32.3419 19.193 32.1724 19.1484 32 19.1484C31.8276 19.1484 31.6581 19.193 31.5079 19.2779L21.0079 25.2127C20.8538 25.2998 20.7255 25.4263 20.6363 25.5793C20.547 25.7322 20.5 25.9061 20.5 26.0832V37.9163C20.5 38.0934 20.547 38.2673 20.6363 38.4202C20.7255 38.5732 20.8538 38.6997 21.0079 38.7869L31.5079 44.7216C31.6581 44.8065 31.8276 44.8511 32 44.8511C32.1724 44.8511 32.3419 44.8065 32.4921 44.7216L42.9921 38.7869C43.1462 38.6997 43.2745 38.5732 43.3637 38.4202C43.453 38.2673 43.5 38.0934 43.5 37.9163V37.9163Z" stroke="#2C2C2C" stroke-linecap="round" stroke-linejoin="round"/>
<path d="M43.3628 25.5795L32.1326 32.0011L20.6377 25.5781" stroke="#2C2C2C" stroke-linecap="round" stroke-linejoin="round"/>
<rect x="0.5" y="0.5" width="63" height="63" rx="31.5" stroke="#2C2C2C"/>
</svg>
