<svg width="40" height="40" viewBox="0 0 40 40" fill="none" xmlns="http://www.w3.org/2000/svg">
<mask id="mask0_102_28817" style="mask-type:alpha" maskUnits="userSpaceOnUse" x="0" y="0" width="40" height="40">
<rect width="40" height="40" rx="20" fill="#C4C4C4"/>
</mask>
<g mask="url(#mask0_102_28817)">
<rect width="40" height="40" rx="20" fill="#C4C4C4"/>
<path d="M9.1665 37.4997C9.1665 34.5528 10.3371 31.7267 12.4209 29.6429C14.5046 27.5592 17.3308 26.3886 20.2776 26.3886C23.2245 26.3886 26.0506 27.5592 28.1344 29.6429C30.2181 31.7267 31.3887 34.5528 31.3887 37.4997V40.2776H9.1665V37.4997ZM20.2776 24.9997C15.6734 24.9997 11.9443 21.2705 11.9443 16.6663C11.9443 12.0622 15.6734 8.33301 20.2776 8.33301C24.8818 8.33301 28.6109 12.0622 28.6109 16.6663C28.6109 21.2705 24.8818 24.9997 20.2776 24.9997Z" fill="white"/>
</g>
</svg>
