<?xml version="1.0" standalone="yes"?>
<svg xmlns="http://www.w3.org/2000/svg" width="653" height="960">
<path style="fill:#010101; stroke:none;" d="M0 0L0 960L653 960L653 844C643.072 848.538 633.244 852.421 622 851.961C613.644 851.618 602.27 846.411 595.615 852.772C591.347 856.852 583.674 862.359 581.651 868C580.016 872.557 582.173 879.198 582.166 884C582.148 895.661 575.897 913.375 563.714 917.957C556.796 920.559 540.343 908.328 534 905.258C513.403 895.292 488.851 887.206 470.098 874.073C466.396 871.481 467.77 867.829 465.296 864.608C462.239 860.627 456.787 857.033 452.576 854.378C442.569 848.069 423.354 859.859 418 842C402.648 826.115 422.554 802.606 440.961 804.253C449.974 805.06 458.546 812.695 461.722 821.015C463.096 824.614 462.311 829.237 464.458 832.471C473.382 845.924 484.241 842.305 497.004 840.752C501.673 840.184 508.537 843.866 512 840L518 840L530 837C523.601 825.863 516.745 816.364 522.349 803.001C528.026 789.462 541.222 787.456 539.106 770.043C538.533 765.329 532.452 763.331 529.171 760.622C523.044 755.565 517.802 748.532 515.232 741C507.801 719.223 522.518 692.703 546 689.364C557.877 687.676 566.046 694.047 577 696C573.076 681.047 603.84 677.241 611.258 667.532C617.716 659.079 613.913 643.032 618 633C598.84 618.081 588.757 598.004 601.262 575.015C604.811 568.491 618.909 561.971 616.797 554.003C613.608 541.971 589.711 533.226 580 526.742C576.192 524.2 571.434 519.845 567 518.682C559.577 516.736 552.865 522.05 544.999 518.165C537.082 514.255 534.945 506.901 528.671 501.652C524.105 497.831 515.635 495.918 510 494C498.031 509.788 478.322 502.02 465 494C463.493 501.461 456.987 504.196 451 507.908C440.007 514.724 429.157 521.67 418 528.228C411.435 532.086 406.889 536.247 399 534C400.245 537.234 401.775 540.469 401.817 544C402.139 571.221 371.77 562.911 358 574C363.898 582.186 367.398 591.928 365 602C373.524 605.549 380.866 612.984 389.999 614.858C396.149 616.12 403.079 611.37 409.665 611.814C427.014 612.985 438.865 630.767 435 647C443.898 648.911 450.401 654.714 458.09 659.208C472.337 667.533 486.808 675.536 500.715 684.424C505.457 687.455 520.679 693.014 518.412 700.171C517.094 704.331 513.058 710.891 507.999 710.214C500.878 709.26 492.234 700.891 486 697.336C467.993 687.071 441.918 676.414 428 661L427 661C423.235 663.359 419.402 666.602 415 667.606C401.247 670.742 387.052 662.433 381.249 650.015C379.385 646.024 380.27 640.304 377.487 636.904C373.299 631.789 363.143 627.48 357 625.396C350.551 623.208 343.284 631.177 336.826 632.709C327.955 634.813 319.198 630.257 311.17 631.988C303.147 633.718 294.396 645.051 288 650C289.418 655.321 289.808 660.64 288.262 666.001C276.645 706.276 214.709 681.448 234.323 645.004C236.587 640.798 239.584 637.553 243.439 634.765C252.863 627.948 260.327 632.691 270.001 629.824C277.977 627.46 286.966 617.554 293 612L293 611C279.108 587.011 286.671 554.223 319 553C315.293 532.38 317.875 509.21 317.85 488.271C317.841 480.719 315.37 470.279 323 466L323 465C304.666 459.681 292.871 441.101 302.273 423.015C305.03 417.711 313.188 414.055 314.671 408.794C317.114 400.128 315 387.997 315 379C302.603 375.419 292.841 365.145 288.286 353.286C286.548 348.759 287.255 338.991 283.57 336.018C275.461 329.477 263.325 340.061 253.83 338.934C240.223 337.319 236.869 327.718 227 321C227.848 314.501 225.081 308.432 227.235 301.714C232.576 285.063 252.262 276.36 267.975 284.825C274.818 288.511 278.134 295.654 284 300C283.194 306.179 287.653 313.676 294.996 312.201C300.478 311.101 304.711 304.665 309.999 302.479C325.976 295.874 346.546 301.315 358 314L359 314L360 308L396 294C404.775 285.486 425.23 279.595 437 275.714C441.416 274.259 444.716 274.761 448 278L449 278C445.744 260.667 453.708 243.144 473 241.058C484.53 239.811 488.995 246.208 500.01 239.331C507.979 234.356 505.017 223.746 509.35 215.996C515.472 205.043 529.719 196.863 542.425 200.211C549.048 201.957 553.846 206.439 560 209C560.446 213.492 564.257 216.773 565.755 221.039C567.179 225.095 565.686 232.053 568.052 235.405C571.945 240.918 592.313 250.535 599 251.085C603.436 251.449 607.628 247.19 611.985 246.305C618.522 244.977 624.767 247.347 631 249L630 251C650.901 261.831 639.138 290.845 619.039 293.698C601.33 296.211 600.353 281.024 591.437 271.637C586.005 265.92 565.904 256.031 558.039 255.614C553.906 255.395 549.757 259.452 546.015 260.895C538.092 263.949 524.672 257.317 519.188 262.498C515.669 265.824 518.082 269.862 517.275 274C515.453 283.348 506.464 286.743 498 286C486.522 308.018 465.485 293.264 452 285C451.706 293.994 441.299 296.348 434 299.355C418.545 305.721 403.385 312.743 388 319.291C381.494 322.06 374.221 326.644 367 326C370.382 340.796 370.919 354.355 360.622 366.829C356.287 372.081 344.243 376.355 343.148 383.04C342.026 389.888 339.935 404.401 342.858 410.892C344.278 414.044 347.826 415.54 349.985 418.133C355.98 425.327 358.93 433.5 357.358 442.83C355.379 454.577 344.521 463.639 333 465C340.276 476.757 338.052 488.678 338.329 502.579C338.686 520.459 342.168 541.492 338 559C342.561 556.897 349.491 552.914 351.346 548C353.167 543.18 351.621 537.705 354.391 533.001C362.946 518.47 380.314 518.371 393 526C395.585 515.157 411.339 509.543 420 504L420 503C406.993 501.659 396.143 486.659 396.18 474C396.197 468.096 399.99 461.79 397.757 456C393.765 445.649 384.445 447.154 377.3 440.61C362.931 427.449 368.17 408.67 386.001 403.042C399.368 398.823 414.724 406.876 417.739 421C419.335 428.475 414.687 435.622 420.989 442.057C424.485 445.626 429.463 445.345 434 446.364C442.597 448.295 451.949 453.392 461 452.008C465.955 451.25 470.92 445.733 476 444C473.625 435.169 476.35 426.906 476 418C475.658 409.301 468.203 404.154 470.861 394.389C474.307 381.729 492.716 377.346 502.972 383.25C506.858 385.487 510.012 391.971 514.083 392.889C524.973 395.344 535.551 393.003 545.972 399.25C560.708 408.084 565.218 424.441 580 431.25C584.458 433.303 592.946 437.221 597.972 435.5C603.001 433.778 607.482 427.881 612.028 425C615.772 422.627 625.135 420.58 627 417L630 418L630 416L653 415L653 312L652.397 296.105L645.531 287.895L649 277C654.954 276.26 653 266.491 653 262L653 212L653 0L0 0z"/>
<path style="fill:#bcbdbe; stroke:none;" d="M535.603 109.133C532.007 111.422 534.131 123.218 533.856 127C532.654 143.506 528.483 165.808 531.938 181.941C532.928 186.564 540.155 187.581 543.852 185.643C548.321 183.299 547.832 173.444 548.182 169C549.401 153.539 553.335 132.295 550.106 117.105C549.285 113.239 539.407 106.712 535.603 109.133z"/>
<path style="fill:#3e8adb; stroke:none;" d="M533 111L534 112L533 111M533 114L534 115L533 114M550 115L551 116L550 115M549 139L550 140L549 139M532 151L533 152L532 151z"/>
<path style="fill:#2055b8; stroke:none;" d="M532 160L533 161L532 160z"/>
<path style="fill:#3e8adb; stroke:none;" d="M548.333 162.667L548.667 163.333L548.333 162.667M532 184L533 185L532 184M546 184L547 185L546 184M538 186L539 187L538 186M533 199C532.154 202.518 526.434 205.464 526.921 208.859C527.466 212.654 534.134 215.176 537 216.861C546.019 222.163 556.507 226.511 563 235L560 236L560 237L567 236C568.927 212.915 553.925 201.942 533 199z"/>
<path style="fill:#2055b8; stroke:none;" d="M538 199L539 200L538 199M506 235C508.783 234.207 512.051 232.284 514.999 232.727C526.874 234.511 523.135 246.851 517 252L517 253C529.338 265.228 543.02 265.197 557 255C554.313 247.455 556.843 240.105 563 235C558.48 226.073 546.271 221.723 538 216.861C535.173 215.199 528.223 212.557 527.631 208.859C527.161 205.922 532.665 202.578 534 200C516.839 200.367 502.069 217.935 506 235M543 200L544 201L543 200z"/>
<path style="fill:#3e8adb; stroke:none;" d="M514 208L515 209L514 208z"/>
<path style="fill:#bcbdbe; stroke:none;" d="M559 209L560 210L559 209z"/>
<path style="fill:#2055b8; stroke:none;" d="M567 228L568 229L567 228z"/>
<path style="fill:#3e8adb; stroke:none;" d="M512 232L512 233L517 233L512 232M510 233L505 235L505 236L511 234L510 233z"/>
<path style="fill:#bcbdbe; stroke:none;" d="M449 278L448 278C445.364 274.031 441.341 274.039 437.001 275.384C427.118 278.447 417.592 283.498 408.039 287.46C403.887 289.182 398.599 290.191 396 294L368 304L360 308L367 324L359 316L360 314C344.056 303.429 329.573 295.235 310 302.108C304.432 304.063 299.748 311.312 293.999 311.802C286.955 312.402 284.309 305.641 284 300C278.908 294.416 275.104 287.809 267.961 284.33C253.112 277.098 233.882 283.134 227.951 299C225.165 306.454 226.589 313.394 227 321L230 322L229 324C239.421 333.329 262.715 350.612 275 332L276 332C278.735 334.07 283.099 335.005 284.772 338.214C290.211 348.642 287.74 359.306 297.529 368.869C302.433 373.661 314.276 376.599 314.941 384.015C315.49 390.129 317.098 403.72 314.536 409.214C312.358 413.888 305.746 416.356 302.934 421.09C293.862 436.369 300.179 455.051 316.001 462.769C321.645 465.522 327.952 466.523 334 468L332 465L339 465C344.267 460.243 350.097 458.496 354.073 451.996C360.515 441.467 358.67 428.603 351.41 419.055C348.907 415.763 344.497 413.817 342.859 409.956C340.58 404.586 341.661 389.354 342.91 383.439C344.297 376.87 354.641 374.057 358.91 369.245C369.97 356.782 371.834 341.542 367 326L384 322L391 319C401.809 309.984 421.808 304.228 435 299.235C442.425 296.425 451.727 293.992 452 285C454.763 286.658 455.585 289.853 458 292C463.255 296.671 474.602 298.367 479 298C484.113 297.574 493.553 291.638 495 292L495 289L497 290L498 286C504.485 286.724 513.647 285.562 515 278C521.354 272.65 514.182 265.164 523 260L516 251C523.627 248.343 525.787 236.903 516.957 233.608C507.818 230.198 499.169 242.246 491 243.616C485.504 244.537 479.716 240.246 474 240.637C454.546 241.968 444.776 260.257 449 278z"/>
<path style="fill:#3e8adb; stroke:none;" d="M519 234L520 235L519 234M520 235L521 236L520 235M521.333 236.667L521.667 237.333L521.333 236.667z"/>
<path style="fill:#bcbdbe; stroke:none;" d="M626 293C629.287 290 633.458 288.391 636.174 284.674C643.469 274.69 643.56 255.715 630 251L631 249C624.294 246.537 617.11 244.686 610 246.518C606.356 247.458 602.829 250.758 599 250.524C591.965 250.094 582.31 243.176 576 240.031C571.413 237.745 564.42 233.288 559.994 238.434C556.638 242.334 554.119 250.021 557.844 254.363C564.768 262.433 580.071 264.57 588.942 270.352C593.901 273.584 594.157 279.985 597.468 284.572C604.948 294.931 614.923 293.92 626 293z"/>
<path style="fill:#3e8adb; stroke:none;" d="M522.333 238.667L522.667 239.333L522.333 238.667M559 238L560 239L559 238M558.333 239.667L558.667 240.333L558.333 239.667M495 241L496 242L495 241M523 241L523 245L524 245L523 241M557 241L557 244L558 244L557 241M464 242L465 243L464 242M556.333 244.667L556.667 245.333L556.333 244.667M522.333 246.667L522.667 247.333L522.333 246.667M555 247L556 248L555 247M521 248L522 249L521 248M455 249L456 250L455 249M520 249L521 250L520 249M555 249L555 252L556 252L555 249M454 250L455 251L454 250M518 250L519 251L518 250M453 251L454 252L453 251M516 251L516 253L518 251L516 251M556.333 252.667L556.667 253.333L556.333 252.667M517 253L518 254L517 253M518 254L519 255L518 254M519 255L520 256L519 255M520 256L521 257L520 256M521 257L522 258L521 257M522 258L523 259L522 258M449 259L450 260L449 259M521 260L522 261L521 260M520 261L521 262L520 261M518 262L519 263L518 262M541 262L542 263L541 262M517 263L518 264L517 263M447 269L448 270L447 269M517 270L518 271L517 270M517 273L518 274L517 273z"/>
<path style="fill:#bcbdbe; stroke:none;" d="M651 276L649 277C645.659 285.037 642.59 290.984 653 294L653 276L651 276z"/>
<path style="fill:#3e8adb; stroke:none;" d="M430 278L431 279L430 278M515 278L516 279L515 278M450 279L450 281L452 281L452 279L450 279M511 283L512 284L511 283M413 285L414 286L413 285M410 286L411 287L410 286M503.667 286.333L504.333 286.667L503.667 286.333M236 287L237 288L236 287M632 288L633 289L632 288M234 289L235 290L234 289M404 289L405 290L404 289M495 289L496 290L495 289M457 290L458 291L457 290M450.667 291.333L451.333 291.667L450.667 291.333M493 291L494 292L493 291M626 291L627 292L626 291M624 292L625 293L624 292M652 294L653 295L652 294M471.667 297.333L472.333 297.667L471.667 297.333M474 297L475 298L474 297M480 297L481 298L480 297M382 298L383 299L382 298M432.667 299.333L433.333 299.667L432.667 299.333M316 300L317 301L316 300M426.667 302.333L427.333 302.667L426.667 302.333M226 303L227 304L226 303M371 303L372 304L371 303M424 303L425 304L424 303M412 308L413 309L412 308z"/>
<path style="fill:#2055b8; stroke:none;" d="M359.333 310.667L359.667 311.333L359.333 310.667z"/>
<path style="fill:#3e8adb; stroke:none;" d="M360 310C359.229 315.707 362.17 320.973 367 324L360 310M398 314L399 315L398 314M489 314L490 315L489 314z"/>
<path style="fill:#bcbdbe; stroke:none;" d="M486 315C484.484 326.997 484.445 338.938 483.873 350.999C483.664 355.396 482.301 361.995 486 365L485 367C489.643 369.067 496.503 370.26 500.059 365.467C505.655 357.922 502.459 336.992 502.503 327.83C502.522 323.835 503.705 319.58 500.581 316.343C496.902 312.532 490.545 314.855 486 315z"/>
<path style="fill:#3e8adb; stroke:none;" d="M493 314L494 315L493 314M496 314L497 315L496 314z"/>
<path style="fill:#010101; stroke:none;" d="M359 315L360 316L359 315z"/>
<path style="fill:#3e8adb; stroke:none;" d="M487 315L488 316L487 315M391 317L392 318L391 317M389 318L390 319L389 318M384 320L385 321L384 320z"/>
<path style="fill:#2055b8; stroke:none;" d="M382 321L383 322L382 321z"/>
<path style="fill:#3e8adb; stroke:none;" d="M229 322L230 323L229 322M231 325L232 326L231 325M502 325L503 326L502 325M371.667 326.333L372.333 326.667L371.667 326.333M234.333 329.667L234.667 330.333L234.333 329.667M275 332L276 333L275 332M368 332L369 333L368 332M277 333L278 334L277 333M279 334L280 335L279 334z"/>
<path style="fill:#ee12ee; stroke:none;" d="M269 336L270 337L269 336z"/>
<path style="fill:#3e8adb; stroke:none;" d="M285 337L286 338L285 337M484 342L485 343L484 342M369 345L370 346L369 345M501 354L502 355L501 354M366 357L367 358L366 357M484 357L485 358L484 357M363 363L364 364L363 363M362 364L363 365L362 364M294 365L295 366L294 365M361 365L362 366L361 365M485 365L486 366L485 365M499 366L500 367L499 366M498 367L499 368L498 367M359 368L360 369L359 368M357 370L358 371L357 370M300 371L301 372L300 371M306 375L307 376L306 375M310 377L311 378L310 377M346 377L347 378L346 377M312 378L313 379L312 378z"/>
<path style="fill:#bcbdbe; stroke:none;" d="M476 444C472.504 444.583 468.871 446.086 466 448C464.595 448.936 462.609 452.732 461 453C456.986 453.669 450.283 445.587 449 452L424.174 443.875L416 436L418 432L419 425C416.109 411.049 405.633 399.325 390.17 401.817C382.901 402.989 378.254 406.918 372 410L373 413L368 419C368.803 427.153 370.47 434.547 376.611 440.667C378.559 442.608 381.582 442.693 383 445L387 444L387 445L385 446L401 459L397 465L399 464C394.547 472.21 398.392 478.596 398 487L404 495L420 503L420 504C415.367 506.109 411.415 509.055 407.039 511.603C403.024 513.941 397.583 516.148 394.969 520.185C391.357 525.764 396.711 534.334 402.911 535.061C410.713 535.976 430.768 523.519 435 517C443.886 516.368 463.95 503.291 465 494C473.748 500.87 502.146 511.835 508 495L510 494C515.82 496.349 524.032 498.084 528.671 502.394C534.654 507.95 536.86 515.178 544.985 518.61C552.803 521.911 562.142 516.336 569 520.148C582.204 527.487 598.86 545.191 614 547C615.715 553 620.198 559.453 612 562L613 564C609.12 565.065 606.372 566.801 606 571L603 570L603 575L600 580C595.44 582.99 595.358 587.184 597 592C592.448 595.348 595.34 611.317 601 612L601 617L604 618L603 621L606 625L607 625L608 623L618 633L614 646L616 648L616 649C613.994 650.127 613.994 650.873 616 652L616 653C611.994 655.49 614.237 663.984 610.75 667.778C603.617 675.538 589.721 679.747 580.861 685.5C577.479 687.696 572.038 693.516 579 695L579 696C561.095 694.166 549.047 682.964 531.015 695.068C505.255 712.358 508.116 757.618 540 767C538.827 772.801 539.846 781.311 536.718 786.472C534.016 790.932 527.963 792.882 524.877 797.325C515.66 810.59 520.987 825.604 530 837L518 840L512 840C507.749 842.789 502.788 840.304 497.999 840.467C491.811 840.678 485.651 844.511 479.464 843.101C461.874 839.093 465.319 818.615 453.406 809.105C444.553 802.038 423.57 801.063 419 814C410.508 815.119 411.909 838.09 418 842L417 844C422.231 848.448 426.547 852.861 433.739 853.641C440.265 854.349 447.333 851.173 452.999 854.932C456.97 857.566 462.564 861.179 465.248 865.184C467.198 868.096 466.267 871.659 469.188 874.034C476.177 879.719 486.81 883.211 495 886.861C508.467 892.863 521.795 899.692 535 906.248C544.157 910.794 554.625 918.462 565 919L568 916L569 915L568 913C572.237 912.124 574.431 910.478 574 906C582.143 900.683 582.873 888.803 582.464 880C582.167 873.601 579.386 867.722 586 864L585 862L604 848L603 850C614.115 850.455 638.931 856.917 647 846L649 847L650 847L650 846L648 845L653 844L653 787C653 778.682 654.765 768.078 652.682 760.015C651.092 753.859 642.589 753.302 641.407 746.985C639.633 737.501 641.262 722.657 653 723L653 531L622 527.431L597 512C595.898 508.988 595.234 507.93 592 508L593 511C588.689 509.368 581.611 506.385 579.523 501.985C577.172 497.029 578.974 490.975 576.04 485.754C570.596 476.064 561.292 474.007 551 474L551 473C555.17 472.562 565.475 471.163 568 475C586.451 475.217 580.1 497.533 593 506C590.502 498.983 581.029 485.246 583.518 477.67C586.753 467.823 603.511 462.941 605.477 451.999C606.618 445.649 600.018 441.199 600 435C572.31 438.738 565.872 410.349 545.911 398.799C540.176 395.481 531.573 393.465 525 392.888C521.45 392.577 516.536 393.88 513.375 391.972C508.708 389.156 506.382 384.094 500.985 381.839C490.324 377.383 473.381 382.94 470.559 395.004C468.343 404.475 475.672 409.815 476.057 418.286C476.461 427.184 473.407 435.061 476 444z"/>
<path style="fill:#3e8adb; stroke:none;" d="M485 381L486 382L485 381M342 383L343 384L342 383M478 384L479 385L478 384M342 385L343 386L342 385z"/>
<path style="fill:#2055b8; stroke:none;" d="M342 386L343 387L342 386z"/>
<path style="fill:#3e8adb; stroke:none;" d="M342.333 389.667L342.667 390.333L342.333 389.667M342 392L343 393L342 392M531 394L532 395L531 394M388 402L389 403L388 402M470 402L471 403L470 402M382 404L383 405L382 404M315 408L316 409L315 408z"/>
<path style="fill:#ee12ee; stroke:none;" d="M373 409L374 410L373 409z"/>
<path style="fill:#3e8adb; stroke:none;" d="M374 409L375 410L374 409M472 409L473 410L472 409M372.333 411.667L372.667 412.333L372.333 411.667M473 411L474 412L473 411M310 413L311 414L310 413M308 414L309 415L308 414M641 417L640 417L630 416L630 418L627 417L624 418L624 421L623 421C619.032 419.9 615.641 422.111 613 425L614 427L639 448L652 456L653 456L653 415C648.616 414.869 643.985 412.918 641 417M415 415L416 416L415 415z"/>
<path style="fill:#bcbdbe; stroke:none;" d="M648 415L649 416L648 415M651 415L652 416L651 415z"/>
<path style="fill:#3e8adb; stroke:none;" d="M476 416L477 417L476 416z"/>
<path style="fill:#2055b8; stroke:none;" d="M636 416L637 417L636 416M640 416L641 417L640 416z"/>
<path style="fill:#3e8adb; stroke:none;" d="M369.333 417.667L369.667 418.333L369.333 417.667z"/>
<path style="fill:#2055b8; stroke:none;" d="M634 417L635 418L634 417M637 417L638 418L637 417M631 418L632 419L631 418z"/>
<path style="fill:#bcbdbe; stroke:none;" d="M623 419L624 420L623 419z"/>
<path style="fill:#3e8adb; stroke:none;" d="M303 420L304 421L303 420z"/>
<path style="fill:#2055b8; stroke:none;" d="M623 420L624 421L623 420M615 424L616 425L615 424M617 424L618 425L617 424M619 424L620 425L619 424z"/>
<path style="fill:#3e8adb; stroke:none;" d="M417 425L418 426L417 425M610 425L610 428L606 430L613 427L610 425z"/>
<path style="fill:#bcbdbe; stroke:none;" d="M611.667 425.333L612.333 425.667L611.667 425.333z"/>
<path style="fill:#2055b8; stroke:none;" d="M613 425C609.771 428.888 601.416 430.828 601.644 436.95C601.896 443.721 611.549 446.125 608.052 454C605.422 459.922 600.64 469.398 595.892 473.772C592.918 476.512 587.129 477.018 585.643 481.109C584.021 485.573 587.428 494.32 591 497C591.005 503.892 596.5 508.494 601.336 512.717C617.976 527.25 632.014 526 653 526L653 479C653 472.377 654.55 463.484 652.566 457.133C651.176 452.68 643.215 448.536 639 448C637.494 438.965 613.25 431.999 615 425L613 425M617 426L618 427L617 426z"/>
<path style="fill:#3e8adb; stroke:none;" d="M369 427L370 428L369 427M417 427L418 428L417 427z"/>
<path style="fill:#2055b8; stroke:none;" d="M609 427L610 428L609 427z"/>
<path style="fill:#bcbdbe; stroke:none;" d="M605 429L606 430L605 429z"/>
<path style="fill:#3e8adb; stroke:none;" d="M603 431C595.417 439.318 607.034 443.553 605.087 451.999C602.127 464.841 580.501 469.455 584 484L585 484L596.775 473.772L609.246 452L602.621 438.718L603 431M371.333 432.667L371.667 433.333L371.333 432.667M416.333 432.667L416.667 433.333L416.333 432.667M584 433L585 434L584 433M372 434L373 435L372 434M416 435L417 436L416 435M374 437L375 438L374 437M375 438L376 439L375 438M475 439L476 440L475 439M379.667 442.333L380.333 442.667L379.667 442.333z"/>
<path style="fill:#2055b8; stroke:none;" d="M382 443L383 444L382 443z"/>
<path style="fill:#3e8adb; stroke:none;" d="M384 444L384 445L387 445L384 444M387 445L388 446L387 445M469 446L470 447L469 446M467 447L468 448L467 447M301 449L302 450L301 449M394 449L395 450L394 449M442 449L443 450L442 449M302 450L303 451L302 450M444 450L445 451L444 450M395 451L396 452L395 451M448 451L449 452L448 451z"/>
<path style="fill:#2055b8; stroke:none;" d="M352 454L353 455L352 454M308 457L309 458L308 457z"/>
<path style="fill:#3e8adb; stroke:none;" d="M399 458L399 460L401 460L399 458z"/>
<path style="fill:#2055b8; stroke:none;" d="M313 461L314 462L313 461z"/>
<path style="fill:#3e8adb; stroke:none;" d="M317 463L318 464L317 463M339 463L340 464L339 463M399 463L400 464L399 463M398 464L399 465L398 464M319 467L319 468C325.406 471.22 330.265 471.455 337 469C331.733 465.613 324.904 465.572 319 467z"/>
<path style="fill:#010101; stroke:none;" d="M325 465L326 466L325 465z"/>
<path style="fill:#3e8adb; stroke:none;" d="M328 465L329 466L328 465M330 465L331 466L330 465M332 465L333 466L332 465z"/>
<path style="fill:#2055b8; stroke:none;" d="M398 465L399 466L398 465z"/>
<path style="fill:#bcbdbe; stroke:none;" d="M321 466L322 467L321 466M318 468L318 523L319 553L303 556C295.314 564.359 271.974 587.396 290 599C288.737 575.713 313.3 555.286 336 560.302C343.888 562.046 351.57 569.394 358 574L359 574L367 568C366.05 558.778 359.717 551.554 351 549L341 556L338 559C343.173 541.386 338.594 517.332 338.377 499.001C338.259 489.033 339.948 478.721 337 469L318 468z"/>
<path style="fill:#2055b8; stroke:none;" d="M337 469L338 470L337 469z"/>
<path style="fill:#3e8adb; stroke:none;" d="M557 469L559 471L557 469M396 471L396 474L397 474L396 471M553 471L554 472L553 471M338 472L339 473L338 472z"/>
<path style="fill:#010101; stroke:none;" d="M552 473L552 474C562.042 474.083 570.872 477.298 575.901 486.59C581.963 497.789 577.079 507.26 593 511L593 506C589.096 502.197 584.419 496.254 582.94 490.91C582.042 487.666 583.32 484.29 581.539 481.214C577.15 473.631 559.629 471.189 552 473z"/>
<path style="fill:#3e8adb; stroke:none;" d="M551 473L552 474L551 473M567 473L568 474L567 473M573 473L572 475L573 473M570 474L571 475L570 474M338 475L339 476L338 475M396 475L397 476L396 475M573 475L574 476L573 475M575.667 475.333L576.333 475.667L575.667 475.333z"/>
<path style="fill:#ee12ee; stroke:none;" d="M574 476L575 477L574 476z"/>
<path style="fill:#3e8adb; stroke:none;" d="M578 476L579 477L578 476M581 476L580 478L581 476M397.333 481.667L397.667 482.333L397.333 481.667M398 484L399 485L398 484M585.333 485.667L585.667 486.333L585.333 485.667M401.333 489.667L401.667 490.333L401.333 489.667M586.333 489.667L586.667 490.333L586.333 489.667M402 491L403 492L402 491M587 491L588 497L589 497L587 491M403 492L404 493L403 492M404 493L405 494L404 493M464 493L465 494L464 493M405 494L406 495L405 494M511 494L512 495L511 494M508 495L509 496L508 495M338 496L339 497L338 496M517 496L518 497L517 496M408 497L409 498L408 497M469 497L470 498L469 497M518 497L519 498L518 497M590 497L591 498L590 497M338 499L339 500L338 499M411 499L411 500L414 501L411 499M473 499L474 500L473 499M503 499L504 500L503 499M590.333 499.667L590.667 500.333L590.333 499.667M462 500L463 501L462 500M501 500L502 501L501 500M415.667 501.333L416.333 501.667L415.667 501.333M461 501L462 502L461 501M477 501L478 502L477 501M591 501L592 502L591 501M338 502L339 503L338 502z"/>
<path style="fill:#010101; stroke:none;" d="M591 502L592 503L591 502z"/>
<path style="fill:#3e8adb; stroke:none;" d="M592 503L593 504L592 503z"/>
<path style="fill:#010101; stroke:none;" d="M593 504L594 505L593 504z"/>
<path style="fill:#3e8adb; stroke:none;" d="M338 505L339 506L338 505M593 505L593 507L595 507L595 505L593 505M534 509L535 510L534 509M596 509L598 512L596 509M599.667 511.333L600.333 511.667L599.667 511.333M338 512L339 513L338 512M442 513L443 514L442 513M601 513L604 516L601 513M338 515L339 516L338 515M605 516L606 517L605 516M435 517L436 518L435 517M568 517L569 518L568 517M606.667 517.333L607.333 517.667L606.667 517.333M608 518L612 521L612 520L608 518M549 519L550 520L549 519M559 519L560 520L559 519M338 520L339 521L338 520M357 529L357 530L383 542.394L401 550C400.811 545.466 402.275 541.413 400.507 536.985C392.206 516.204 371.926 517.598 357 529z"/>
<path style="fill:#2055b8; stroke:none;" d="M377 520L378 521L377 520z"/>
<path style="fill:#3e8adb; stroke:none;" d="M612 521L613 522L612 521M338 522L339 523L338 522M393.333 523.667L393.667 524.333L393.333 523.667M574 523L575 524L574 523z"/>
<path style="fill:#2055b8; stroke:none;" d="M389 524L390 525L389 524z"/>
<path style="fill:#3e8adb; stroke:none;" d="M617 524L618 525L617 524z"/>
<path style="fill:#2055b8; stroke:none;" d="M393 525L394 526L393 525z"/>
<path style="fill:#3e8adb; stroke:none;" d="M422 525L423 526L422 525M578 525L579 526L578 525M618.667 525.333L619.333 525.667L618.667 525.333M620 526L620 527L653 531L653 526L620 526M579 526L580 527L579 526z"/>
<path style="fill:#bcbdbe; stroke:none;" d="M358 527L359 528L358 527z"/>
<path style="fill:#2055b8; stroke:none;" d="M358 528L359 529L358 528z"/>
<path style="fill:#bcbdbe; stroke:none;" d="M355 530L356 531L355 530z"/>
<path style="fill:#2055b8; stroke:none;" d="M356 530L352 549C363.761 549.887 362.641 561.677 370.418 566.682C381.703 573.945 399.006 561.006 401 550L356 530z"/>
<path style="fill:#3e8adb; stroke:none;" d="M414 530L415 531L414 530M355.667 531.333L356.333 531.667L355.667 531.333M412 531L413 532L412 531M354.333 532.667L354.667 533.333L354.333 532.667M411 532L412 533L411 532M318 534L319 535L318 534M353 534L354 535L353 534M405 534L406 535L405 534M403 535L404 536L403 535z"/>
<path style="fill:#bcbdbe; stroke:none;" d="M352 536L353 537L352 536z"/>
<path style="fill:#3e8adb; stroke:none;" d="M338 538L339 539L338 538M600 539L601 540L600 539z"/>
<path style="fill:#2055b8; stroke:none;" d="M401 542L402 543L401 542z"/>
<path style="fill:#3e8adb; stroke:none;" d="M351 544L352 545L351 544z"/>
<path style="fill:#2055b8; stroke:none;" d="M401 544L401 548L402 548L401 544z"/>
<path style="fill:#3e8adb; stroke:none;" d="M610 545L611 546L610 545M613 547L614 548L613 547z"/>
<path style="fill:#2055b8; stroke:none;" d="M400 548L401 549L400 548z"/>
<path style="fill:#3e8adb; stroke:none;" d="M352 549L352 550C361.714 551.965 362.156 561.987 369 567C366.928 558.279 361.771 549.317 352 549M616 549L617 552L618 552L616 549M338 550L339 551L338 550M350 550L351 551L350 550M349 551L350 552L349 551M304 556L305 557L304 556M342 556L343 557L342 556M302 557L303 558L302 557M617.333 558.667L617.667 559.333L617.333 558.667M321 560L322 561L321 560z"/>
<path style="fill:#2055b8; stroke:none;" d="M293 613C300.167 611.775 307.331 618.49 310.447 624.675C311.464 626.694 310.77 629.508 312.629 631.056C324.05 640.562 344.419 631.022 354 624L359 603L331.285 591.442L314 583L307 577C314.457 566.281 328.692 571.181 335 561L330 562L332 561L332 562C328.942 562.71 327.732 562.669 326 560C301.339 562.904 282.405 589.194 293 613z"/>
<path style="fill:#3e8adb; stroke:none;" d="M323 560L324 561L323 560M326 560L327 561L326 560z"/>
<path style="fill:#2055b8; stroke:none;" d="M327 560L327 562L329 562L327 560z"/>
<path style="fill:#3e8adb; stroke:none;" d="M328.667 560.333L329.333 560.667L328.667 560.333M334 560C331.985 570.838 312.494 566.115 307 577L314 583L359 603L357 608L358 608L365 602C367.317 583.355 354.709 561.502 334 560M616 560L617 561L616 560M316.667 561.333L317.333 561.667L316.667 561.333z"/>
<path style="fill:#010101; stroke:none;" d="M326 561C327.947 563.231 330.053 563.231 332 561L326 561z"/>
<path style="fill:#3e8adb; stroke:none;" d="M615 561L616 562L615 561M295 562L296 563L295 562M314 562L315 563L314 562M311.667 563.333L312.333 563.667L311.667 563.333M612 563L613 564L612 563M293 564L294 565L293 564M310 564L311 565L310 564M308 565L309 566L308 565M306.667 566.333L307.333 566.667L306.667 566.333M609 566L610 567L609 566M305 567L306 568L305 567M304 568L305 569L304 568M364 568L365 569L364 568M301.667 570.333L302.333 570.667L301.667 570.333M604.667 570.333L605.333 570.667L604.667 570.333M300 572L301 573L300 572M359 572L360 573L359 572M299 573L300 574L299 573M602.333 573.667L602.667 574.333L602.333 573.667M297 575L298 576L297 575M286 576L287 577L286 576M600 576L601 577L600 576M296 577L297 578L296 577M295.333 578.667L295.667 579.333L295.333 578.667z"/>
<path style="fill:#2055b8; stroke:none;" d="M361 578L362 579L361 578z"/>
<path style="fill:#bcbdbe; stroke:none;" d="M361 579L362 580L361 579z"/>
<path style="fill:#3e8adb; stroke:none;" d="M599 579L600 580L599 579M294.333 580.667L294.667 581.333L294.333 580.667M293.333 582.667L293.667 583.333L293.333 582.667z"/>
<path style="fill:#bcbdbe; stroke:none;" d="M363 582L364 583L363 582z"/>
<path style="fill:#3e8adb; stroke:none;" d="M292.333 585.667L292.667 586.333L292.333 585.667M597 586L598 587L597 586M291 588L291 591L292 591L291 588M285 589L285 592L286 592L285 589z"/>
<path style="fill:#bcbdbe; stroke:none;" d="M365 590L366 591L365 590z"/>
<path style="fill:#3e8adb; stroke:none;" d="M596.333 590.667L596.667 591.333L596.333 590.667M290 592L289 598C291.28 596.135 291.441 594.517 290 592z"/>
<path style="fill:#2055b8; stroke:none;" d="M365.333 592.667L365.667 593.333L365.333 592.667z"/>
<path style="fill:#3e8adb; stroke:none;" d="M596 597L597 598L596 597M288 598L289 599L288 598z"/>
<path style="fill:#bcbdbe; stroke:none;" d="M365 598L366 599L365 598z"/>
<path style="fill:#3e8adb; stroke:none;" d="M289 599L290 600L289 599z"/>
<path style="fill:#2055b8; stroke:none;" d="M365.333 599.667L365.667 600.333L365.333 599.667z"/>
<path style="fill:#3e8adb; stroke:none;" d="M596 599L597 600L596 599z"/>
<path style="fill:#bcbdbe; stroke:none;" d="M429 660L428 663C448.138 673.341 467.725 686.59 487 698.532C493.698 702.682 503.898 711.974 512 710L510 708L515 708L518.153 695.375L495.996 681.205L458.09 658.664L435 647L434 627C419.408 613.47 412.61 610.756 393.13 614.638C382.61 616.735 372.176 597.922 362.326 602.364C357.216 604.669 351.564 618.676 355.052 623.526C360.024 630.439 371.78 630.964 377.613 637.297C381.094 641.078 379.847 649.153 382.902 653.961C394.78 672.653 412.908 669.136 429 660z"/>
<path style="fill:#3e8adb; stroke:none;" d="M597 605L599 607L597 605M598 608L599 609L598 608M356.333 609.667L356.667 610.333L356.333 609.667M599.333 610.667L599.667 611.333L599.333 610.667M355.333 611.667L355.667 612.333L355.333 611.667M292 612L293 613L292 612M294 612L294 613L310 623C305.999 617.325 301.19 612.483 294 612M600.333 612.667L600.667 613.333L600.333 612.667z"/>
<path style="fill:#bcbdbe; stroke:none;" d="M288 650L309 634C312.508 624.888 305.464 613.448 295.015 613.166C285.569 612.911 278.307 625.831 270.174 629.399C264.876 631.723 257.841 628.584 252 630.052C236.312 633.998 226.619 652.7 231.638 668C243.225 703.323 300.697 685.091 288 650z"/>
<path style="fill:#3e8adb; stroke:none;" d="M354 614L353 620L354 620L354 614M601 614L602 615L601 614M289 615L290 616L289 615M602 617L603 618L602 617M603 618L604 619L603 618M604 619L605 620L604 619M281 621L282 622L281 621M353 621L354 622L353 621M605 621L606 622L605 621M354 623L355 624L354 623M607.333 623.667L607.667 624.333L607.333 623.667M310 624L310 626L312 626L310 624M357 625L358 626L357 625M608 625L609 626L608 625M609 626L610 627L609 626M311 627L312 628L311 627M361 627L362 628L361 627M310.333 628.667L310.667 629.333L310.333 628.667M433 628L434 629L433 628M265 630L266 631L265 630M616 630L617 631L616 630M310 631L311 632L310 631M342 631L343 632L342 631M619 631L618 633L619 631M622 632L618 638C626.085 640.489 635.766 644.015 644 641C640.093 631.16 630.543 634.034 622 632M307 633L308 634L307 633M377 636L378 637L377 636M303 637L304 638L303 637z"/>
<path style="fill:#bcbdbe; stroke:none;" d="M620 637L621 638L620 637z"/>
<path style="fill:#3e8adb; stroke:none;" d="M379 638L380 639L379 638M616.333 640.667L616.667 641.333L616.333 640.667M379 641L380 642L379 641M615 644L616 645L615 644M291 647L292 648L291 647M615.333 647.667L615.667 648.333L615.333 647.667M614.667 652.333L615.333 652.667L614.667 652.333M429 655L428 658L429 655M614 657L615 658L614 657M230 658L231 659L230 658M615 659L616 660L615 659M427.667 660.333L428.333 660.667L427.667 660.333M425 661L426 662L425 661M424 662L425 663L424 662M393 663L394 664L393 663M421 664L422 665L421 664M418 666L419 667L418 666M433 666L434 667L433 666M613 666L614 667L613 666M414 667L415 668L414 667M610 668L611 669L610 668M442 671L443 672L442 671M443 672L444 673L443 672M234 673L235 674L234 673z"/>
<path style="fill:#bcbdbe; stroke:none;" d="M159 722C162.895 726.544 175.554 734.523 181.91 733.062C190.693 731.044 202.113 716.619 209.014 710.75C214.614 705.987 226.933 697.496 228.522 689.999C229.79 684.021 221.801 674.387 215.424 675.562C210.542 676.462 204.677 683.065 201.155 686.424C196.343 691.014 191.115 695.081 186.17 699.536C177.687 707.179 168.895 716.267 159 722z"/>
<path style="fill:#3e8adb; stroke:none;" d="M454 678L455 679L454 678M280 679L281 680L280 679M207 681L208 682L207 681M276 682L277 683L276 682M268 686L269 687L268 686M263.667 687.333L264.333 687.667L263.667 687.333M197 690L198 691L197 690z"/>
<path style="fill:#2055b8; stroke:none;" d="M477 692L478 693L477 692z"/>
<path style="fill:#3e8adb; stroke:none;" d="M478 693L479 694L478 693z"/>
<path style="fill:#010101; stroke:none;" d="M609 693C603.99 698.064 593.267 705.344 586 705C590.347 715.36 595.199 738.379 607 742L609.682 707.001L609 693z"/>
<path style="fill:#3e8adb; stroke:none;" d="M577.667 695.333L578.333 695.667L577.667 695.333M611 695L612 696L611 695M579 696L578 697L578 699L589 706C586.55 701.012 584.595 697.492 579 696M187 698L188 699L187 698M219 700L220 701L219 700M518 700L519 701L518 700M516 702L515 706L516 706L516 702z"/>
<path style="fill:#2055b8; stroke:none;" d="M517 702L518 703L517 702z"/>
<path style="fill:#3e8adb; stroke:none;" d="M594 702L595 703L594 702M216 703L217 704L216 703z"/>
<path style="fill:#bcbdbe; stroke:none;" d="M516 704L517 705L516 704z"/>
<path style="fill:#3e8adb; stroke:none;" d="M610 704L610 709L611 709L610 704z"/>
<path style="fill:#bcbdbe; stroke:none;" d="M587 705L588 706L587 705M609 706L609 709L610 709L609 706z"/>
<path style="fill:#3e8adb; stroke:none;" d="M501 707L502 708L501 707M510 708L510 709L514 707L510 708M209 708L210 709L209 708M518 708L519 709L518 708z"/>
<path style="fill:#2055b8; stroke:none;" d="M512 709L513 710L512 709z"/>
<path style="fill:#3e8adb; stroke:none;" d="M511 710L512 711L511 710M517 710L518 711L517 710M516 712L517 713L516 712M205 713L206 714L205 713M610 714L611 715L610 714M168 715L169 716L168 715M609 716L610 717L609 716M592 718L593 719L592 718M198 719L199 720L198 719M197 720L198 721L197 720M196 721L197 722L196 721M195 722L196 723L195 722M513.333 722.667L513.667 723.333L513.333 722.667M648 722C641.895 726.326 638.107 742.882 642.029 749.815C644.126 753.524 649.469 755.866 653 758L645 747L653 748L653 731C644.024 732.799 647.004 728.085 648 722z"/>
<path style="fill:#2055b8; stroke:none;" d="M653 724C638.163 722.349 652.798 740.976 653 724z"/>
<path style="fill:#3e8adb; stroke:none;" d="M650 723L650 724L653 724L650 723M192 724L193 725L192 724M191 725L192 726L191 725z"/>
<path style="fill:#2055b8; stroke:none;" d="M190 726L191 727L190 726z"/>
<path style="fill:#3e8adb; stroke:none;" d="M513 726L514 727L513 726M188.333 727.667L188.667 728.333L188.333 727.667M594 727L595 728L594 727M185 730L186 731L185 730M594 730L595 731L594 730M513 731L514 732L513 731M608 731L608 734L609 734L608 731M596 732L597 733L596 732z"/>
<path style="fill:#bcbdbe; stroke:none;" d="M607 732L608 733L607 732z"/>
<path style="fill:#3e8adb; stroke:none;" d="M182 733L183 734L182 733M513 733L514 734L513 733M600 736L601 737L600 736M608 736L609 737L608 736M607 737L608 738L607 737M607 739L608 740L607 739M515 741L516 742L515 741M516 744L517 745L516 744M517.333 746.667L517.667 747.333L517.333 746.667z"/>
<path style="fill:#2055b8; stroke:none;" d="M645 747L653 755C652.932 749.333 651.272 745.788 645 747z"/>
<path style="fill:#3e8adb; stroke:none;" d="M527 759L528 760L527 759M532 763L533 764L532 763M539 767L540 768L539 767M539.333 771.667L539.667 772.333L539.333 771.667M538 777L539 778L538 777M538 779L539 780L538 779M521 806L522 807L521 806M421 810L422 811L421 810M418 813L419 814L418 813M416 817L417 818L416 817M415 819L416 820L415 819M413.333 826.667L413.667 827.333L413.333 826.667M413 829L414 830L413 829M524 829L525 830L524 829M414 834L415 835L414 834M530 837L531 838L530 837M415 839L416 840L415 839M500 840L501 841L500 840M476 842L477 843L476 842M651 843L652 844L651 843M648 846L651 844L648 846M419 845L420 846L419 845M647 846L648 847L647 846M643 847L644 848L643 847M600 848L600 849L603 849L600 848z"/>
<path style="fill:#2055b8; stroke:none;" d="M603 848L604 849L603 848z"/>
<path style="fill:#3e8adb; stroke:none;" d="M606 848L607 849L606 848M637 848L638 849L637 848M642 848L643 849L642 848z"/>
<path style="fill:#2055b8; stroke:none;" d="M611 850L612 851L611 850z"/>
<path style="fill:#3e8adb; stroke:none;" d="M613 850L614 851L613 850M632.667 850.333L633.333 850.667L632.667 850.333M619.667 851.333L620.333 851.667L619.667 851.333M626 851L627 852L626 851M629 851L630 852L629 851M446.667 852.333L447.333 852.667L446.667 852.333M434 853L435 854L434 853M437 853L438 854L437 853M444 853L445 854L444 853M451 853L452 854L451 853M593 854L594 855L593 854M453 855L454 856L453 855M455 856L456 857L455 856M459 859L460 860L459 859M462 862L463 863L462 862M585 862L586 863L585 862M464 863L465 864L464 863M582 865L583 866L582 865M581 866L582 867L581 866M578 900L579 901L578 900M577 902L578 903L577 902M576 904L577 905L576 904M574.667 906.333L575.333 906.667L574.667 906.333z"/>
<path style="fill:#ee12ee; stroke:none;" d="M568.667 913.333L569.333 913.667L568.667 913.333z"/>
<path style="fill:#3e8adb; stroke:none;" d="M567 914L568 915L567 914M566 915L567 916L566 915M565 916L566 917L565 916z"/>
</svg>
