<svg width="20" height="20" viewBox="0 0 20 20" fill="none" xmlns="http://www.w3.org/2000/svg">
<path d="M15.6246 17.5H4.37402C4.20826 17.5 4.04929 17.4342 3.93208 17.3169C3.81487 17.1997 3.74902 17.0408 3.74902 16.875V3.125C3.74902 2.95924 3.81487 2.80027 3.93208 2.68306C4.04929 2.56585 4.20826 2.5 4.37402 2.5H11.8746L16.2496 6.875V16.875C16.2496 16.9571 16.2335 17.0383 16.2021 17.1142C16.1707 17.19 16.1246 17.2589 16.0666 17.3169C16.0085 17.375 15.9396 17.421 15.8638 17.4524C15.788 17.4838 15.7067 17.5 15.6246 17.5Z" stroke="#2C2C2C" stroke-linecap="round" stroke-linejoin="round"/>
<path d="M11.875 2.5V6.875H16.2506" stroke="#2C2C2C" stroke-linecap="round" stroke-linejoin="round"/>
<path d="M12.4982 11.941L12.4595 11.9093C12.4301 11.9452 12.3802 11.967 12.3234 11.9789C12.2677 11.9906 12.2135 11.9912 12.1837 11.9912C12.126 11.9912 12.0875 11.9771 12.0368 11.9451C12.0103 11.9284 11.9814 11.9073 11.9445 11.8805L11.9437 11.8799C11.9366 11.8748 11.9293 11.8695 11.9217 11.864C12.0435 11.8549 12.157 11.8522 12.2526 11.852C12.3664 11.852 12.4308 11.8594 12.4694 11.8677C12.4762 11.8692 12.4821 11.8707 12.4875 11.8721C12.4803 11.8827 12.4712 11.8951 12.4595 11.9094L12.4982 11.941ZM12.4982 11.941C12.4179 12.0389 12.2445 12.0412 12.1837 12.0412C12.0804 12.0412 12.0253 12.0011 11.9161 11.9217C11.8947 11.9062 11.8713 11.8891 11.8449 11.8705L12.5348 11.8911C12.5259 11.905 12.514 11.9216 12.4982 11.941ZM12.5468 11.871C12.5523 11.8609 12.5558 11.8528 12.558 11.8468M12.5468 11.871L11.8586 11.819C12.0045 11.8059 12.1408 11.8022 12.2526 11.802C12.4658 11.802 12.5184 11.8276 12.5503 11.8431C12.553 11.8444 12.5555 11.8456 12.558 11.8468M12.5468 11.871L12.558 11.8468M12.5468 11.871L12.558 11.8468M7.266 13.9678L7.26607 13.9678C7.34843 14.0216 7.44478 14.05 7.54478 14.05C7.79607 14.05 8.03879 13.8818 8.30716 13.5535L8.30722 13.5535C8.50118 13.3154 8.70806 12.9934 8.92305 12.5964C9.60595 12.337 10.4454 12.1026 11.1686 11.9688C11.5753 12.3063 11.9485 12.4844 12.2773 12.4844C12.5246 12.4844 12.7385 12.3843 12.893 12.1955L12.893 12.1955C13.0497 12.0038 13.0973 11.8153 12.9988 11.6479L12.9988 11.6479C12.9406 11.5491 12.8422 11.4796 12.7094 11.4349C12.5771 11.3904 12.4076 11.3695 12.2014 11.3695C11.9647 11.3695 11.6769 11.3961 11.3448 11.4477C10.8832 11.0152 10.4026 10.3913 10.0595 9.77669C10.2292 9.14797 10.2733 8.78239 10.2634 8.5611C10.2584 8.4487 10.2394 8.37168 10.2147 8.31567C10.1904 8.26085 10.1616 8.22886 10.142 8.20702C10.1413 8.20629 10.1407 8.20557 10.1401 8.20486L10.14 8.20485C10.1325 8.19643 10.1244 8.18724 10.1158 8.17752C10.0805 8.13739 10.0373 8.08831 9.99031 8.04735C9.93228 7.99682 9.85907 7.95 9.77507 7.95C9.74354 7.95 9.68919 7.95596 9.6373 7.96359C9.58522 7.97125 9.53011 7.98141 9.49698 7.99106C9.32792 8.04023 9.23883 8.15527 9.1713 8.29303L9.17129 8.29305C9.07111 8.4977 9.09233 8.76673 9.16561 9.03829C9.23771 9.30543 9.36306 9.58529 9.49037 9.82931C9.27062 10.5871 8.90664 11.4895 8.52353 12.2261C8.0375 12.4216 7.66172 12.6165 7.40001 12.8102C7.13675 13.0049 6.98028 13.2048 6.95398 13.4104L6.95398 13.4104C6.94443 13.4853 6.94983 13.5779 6.99519 13.6762C7.04056 13.7745 7.12431 13.8749 7.266 13.9678ZM7.48804 13.4654C7.48805 13.4654 7.48805 13.4654 7.48805 13.4653C7.49062 13.4457 7.50248 13.4161 7.53202 13.3766C7.56116 13.3377 7.60526 13.2921 7.6673 13.2408C7.76503 13.16 7.9048 13.0669 8.0945 12.9649C7.79447 13.4164 7.61614 13.532 7.55741 13.5599C7.51622 13.5294 7.49951 13.5065 7.49269 13.4927C7.48623 13.4797 7.48716 13.4723 7.48797 13.466L7.48804 13.4654ZM10.7341 11.5606C10.2416 11.6654 9.72479 11.8056 9.24026 11.9652C9.4705 11.475 9.68441 10.9456 9.85417 10.4461C10.118 10.8486 10.4244 11.237 10.7341 11.5606ZM9.74316 8.60758C9.77206 8.70716 9.77923 8.8566 9.69216 9.05509C9.63721 8.99387 9.60656 8.93266 9.59149 8.87474C9.57239 8.80132 9.57751 8.72997 9.59428 8.66625C9.6111 8.60234 9.63939 8.54718 9.665 8.50763C9.67131 8.49789 9.67737 8.48923 9.68294 8.48174C9.68353 8.48253 9.68412 8.48334 9.68471 8.48417C9.70383 8.51078 9.72705 8.55205 9.74316 8.60758Z" fill="#2C2C2C" stroke="#2C2C2C" stroke-width="0.1"/>
</svg>
