<svg width="10" height="16" viewBox="0 0 10 16" fill="none" xmlns="http://www.w3.org/2000/svg">
<path d="M5.83301 6.5013H9.58301L9.16634 8.16797H5.83301V15.668H4.16634V8.16797H0.833008V6.5013H4.16634V4.9413C4.16634 3.45547 4.32134 2.9163 4.61134 2.37297C4.89552 1.83614 5.33451 1.39714 5.87134 1.11297C6.41467 0.822969 6.95384 0.667969 8.43968 0.667969C8.87468 0.667969 9.25634 0.709635 9.58301 0.792969V2.33464H8.43968C7.33634 2.33464 7.00051 2.39964 6.65801 2.58297C6.40468 2.71797 6.21634 2.9063 6.08134 3.15964C5.89801 3.50214 5.83301 3.83797 5.83301 4.9413V6.5013Z" fill="white"/>
</svg>
