<svg width="16" height="16" viewBox="0 0 16 16" fill="none" xmlns="http://www.w3.org/2000/svg">
<path d="M8 7.16667H15.1108C15.1475 7.4875 15.1667 7.81667 15.1667 8.15334C15.1667 10.4317 14.35 12.35 12.935 13.6533C11.6975 14.7958 10.0033 15.4658 7.98333 15.4658C7.00056 15.4663 6.02732 15.273 5.11926 14.8972C4.2112 14.5213 3.3861 13.9702 2.69114 13.2753C1.99617 12.5804 1.44495 11.7554 1.06898 10.8473C0.693016 9.93933 0.499672 8.96611 0.500001 7.98334C0.499563 7.00049 0.692826 6.02719 1.06874 5.11907C1.44466 4.21095 1.99586 3.38582 2.69084 2.69084C3.38582 1.99586 4.21095 1.44466 5.11907 1.06874C6.02719 0.692826 7.00049 0.499563 7.98333 0.500001C10 0.500001 11.6942 1.24167 12.99 2.44917L11.7717 3.66667C10.8067 2.73417 9.5025 2.16667 8 2.16667C7.23396 2.16667 6.47541 2.31755 5.76768 2.6107C5.05995 2.90386 4.41689 3.33354 3.87521 3.87521C3.33354 4.41689 2.90386 5.05995 2.6107 5.76768C2.31755 6.47541 2.16667 7.23396 2.16667 8C2.16667 8.76605 2.31755 9.52459 2.6107 10.2323C2.90386 10.9401 3.33354 11.5831 3.87521 12.1248C4.41689 12.6665 5.05995 13.0961 5.76768 13.3893C6.47541 13.6825 7.23396 13.8333 8 13.8333C10.9383 13.8333 13.12 11.66 13.4808 8.83334H8V7.16667Z" fill="white"/>
</svg>
