<svg width="64" height="64" viewBox="0 0 64 64" fill="none" xmlns="http://www.w3.org/2000/svg">
<path d="M36 28L19 45" stroke="#2C2C2C" stroke-linecap="round" stroke-linejoin="round"/>
<path d="M21.8479 42.1521C20.8886 39.3229 20.74 36.2817 21.4189 33.3725C22.0978 30.4632 23.5771 27.8019 25.6895 25.6895C27.8019 23.5771 30.4632 22.0978 33.3725 21.4189C36.2817 20.74 39.3229 20.8886 42.1521 21.8479C43.1114 24.6771 43.26 27.7183 42.5811 30.6275C41.9022 33.5368 40.4229 36.1981 38.3105 38.3105C36.1981 40.4229 33.5368 41.9022 30.6275 42.5811C27.7183 43.26 24.6771 43.1114 21.8479 42.1521V42.1521Z" stroke="#2C2C2C" stroke-linecap="round" stroke-linejoin="round"/>
<rect x="0.5" y="0.5" width="63" height="63" rx="31.5" stroke="#2C2C2C"/>
</svg>
