<svg width="18" height="18" viewBox="0 0 18 18" fill="none" xmlns="http://www.w3.org/2000/svg">
<path d="M9.00033 6.5013C8.33728 6.5013 7.7014 6.76469 7.23256 7.23354C6.76372 7.70238 6.50033 8.33826 6.50033 9.0013C6.50033 9.66434 6.76372 10.3002 7.23256 10.7691C7.7014 11.2379 8.33728 11.5013 9.00033 11.5013C9.66337 11.5013 10.2993 11.2379 10.7681 10.7691C11.2369 10.3002 11.5003 9.66434 11.5003 9.0013C11.5003 8.33826 11.2369 7.70238 10.7681 7.23354C10.2993 6.76469 9.66337 6.5013 9.00033 6.5013ZM9.00033 4.83464C10.1054 4.83464 11.1652 5.27362 11.9466 6.05502C12.728 6.83643 13.167 7.89623 13.167 9.0013C13.167 10.1064 12.728 11.1662 11.9466 11.9476C11.1652 12.729 10.1054 13.168 9.00033 13.168C7.89526 13.168 6.83545 12.729 6.05405 11.9476C5.27265 11.1662 4.83366 10.1064 4.83366 9.0013C4.83366 7.89623 5.27265 6.83643 6.05405 6.05502C6.83545 5.27362 7.89526 4.83464 9.00033 4.83464ZM14.417 4.6263C14.417 4.90257 14.3072 5.16752 14.1119 5.36287C13.9165 5.55822 13.6516 5.66797 13.3753 5.66797C13.0991 5.66797 12.8341 5.55822 12.6388 5.36287C12.4434 5.16752 12.3337 4.90257 12.3337 4.6263C12.3337 4.35004 12.4434 4.08508 12.6388 3.88973C12.8341 3.69438 13.0991 3.58464 13.3753 3.58464C13.6516 3.58464 13.9165 3.69438 14.1119 3.88973C14.3072 4.08508 14.417 4.35004 14.417 4.6263ZM9.00033 2.33464C6.93866 2.33464 6.60199 2.34047 5.64283 2.38297C4.98949 2.4138 4.55116 2.5013 4.14449 2.65964C3.78283 2.79964 3.52199 2.96714 3.24449 3.24547C2.98366 3.49747 2.78312 3.80512 2.65783 4.14547C2.49949 4.5538 2.41199 4.9913 2.38199 5.6438C2.33866 6.5638 2.33366 6.88547 2.33366 9.0013C2.33366 11.063 2.33949 11.3996 2.38199 12.3588C2.41283 13.0113 2.50033 13.4505 2.65783 13.8563C2.79949 14.2188 2.96616 14.4796 3.24283 14.7563C3.52366 15.0363 3.78449 15.2038 4.14283 15.3421C4.55449 15.5013 4.99283 15.5896 5.64283 15.6196C6.56283 15.663 6.88449 15.668 9.00033 15.668C11.062 15.668 11.3987 15.6621 12.3578 15.6196C13.0095 15.5888 13.4487 15.5013 13.8553 15.3438C14.2162 15.203 14.4787 15.0355 14.7553 14.7588C15.0362 14.478 15.2037 14.2171 15.342 13.8588C15.5003 13.448 15.5887 13.0088 15.6187 12.3588C15.662 11.4388 15.667 11.1171 15.667 9.0013C15.667 6.93964 15.6612 6.60297 15.6187 5.6438C15.5878 4.99214 15.5003 4.55214 15.342 4.14547C15.2164 3.80547 15.0162 3.49794 14.7562 3.24547C14.5043 2.98451 14.1966 2.78394 13.8562 2.6588C13.4478 2.50047 13.0095 2.41297 12.3578 2.38297C11.4378 2.33964 11.1162 2.33464 9.00033 2.33464ZM9.00033 0.667969C11.2645 0.667969 11.547 0.676302 12.4353 0.717969C13.3228 0.759635 13.927 0.898802 14.4587 1.10547C15.0087 1.31714 15.472 1.6038 15.9353 2.0663C16.3591 2.48288 16.687 2.98679 16.8962 3.54297C17.102 4.0738 17.242 4.6788 17.2837 5.5663C17.3228 6.45464 17.3337 6.73714 17.3337 9.0013C17.3337 11.2655 17.3253 11.548 17.2837 12.4363C17.242 13.3238 17.102 13.928 16.8962 14.4596C16.6876 15.0161 16.3596 15.5202 15.9353 15.9363C15.5186 16.3599 15.0148 16.6878 14.4587 16.8971C13.9278 17.103 13.3228 17.243 12.4353 17.2846C11.547 17.3238 11.2645 17.3346 9.00033 17.3346C6.73616 17.3346 6.45366 17.3263 5.56533 17.2846C4.67783 17.243 4.07366 17.103 3.54199 16.8971C2.9856 16.6884 2.4816 16.3604 2.06533 15.9363C1.6415 15.5198 1.3136 15.0159 1.10449 14.4596C0.897826 13.9288 0.758659 13.3238 0.716992 12.4363C0.677825 11.548 0.666992 11.2655 0.666992 9.0013C0.666992 6.73714 0.675325 6.45464 0.716992 5.5663C0.758659 4.67797 0.897826 4.07464 1.10449 3.54297C1.31302 2.98645 1.641 2.4824 2.06533 2.0663C2.48172 1.64233 2.98568 1.31441 3.54199 1.10547C4.07366 0.898802 4.67699 0.759635 5.56533 0.717969C6.45366 0.678802 6.73616 0.667969 9.00033 0.667969Z" fill="#9E9E9E"/>
</svg>
