<svg width="48" height="36" viewBox="0 0 48 36" fill="none" xmlns="http://www.w3.org/2000/svg">
<rect x="0.5" y="0.5" width="47" height="35" rx="7.5" fill="white" stroke="#E7EBEE"/>
<path fill-rule="evenodd" clip-rule="evenodd" d="M24.0001 25.1285C22.5172 26.4082 20.5937 27.1808 18.4918 27.1808C13.8019 27.1808 10 23.3347 10 18.5904C10 13.846 13.8019 10 18.4918 10C20.5937 10 22.5172 10.7725 24.0001 12.0522C25.483 10.7725 27.4065 10 29.5084 10C34.1983 10 38.0002 13.846 38.0002 18.5904C38.0002 23.3347 34.1983 27.1808 29.5084 27.1808C27.4065 27.1808 25.483 26.4082 24.0001 25.1285Z" fill="#EB001B"/>
<path fill-rule="evenodd" clip-rule="evenodd" d="M24 25.1285C25.8258 23.5529 26.9835 21.2084 26.9835 18.5904C26.9835 15.9723 25.8258 13.6279 24 12.0522C25.4829 10.7725 27.4064 10 29.5083 10C34.1982 10 38.0001 13.846 38.0001 18.5904C38.0001 23.3347 34.1982 27.1808 29.5083 27.1808C27.4064 27.1808 25.4829 26.4082 24 25.1285Z" fill="#F79E1B"/>
<path fill-rule="evenodd" clip-rule="evenodd" d="M24.0001 25.1281C25.8259 23.5525 26.9836 21.208 26.9836 18.5899C26.9836 15.9719 25.8259 13.6274 24.0001 12.0518C22.1743 13.6274 21.0166 15.9719 21.0166 18.5899C21.0166 21.208 22.1743 23.5525 24.0001 25.1281Z" fill="#FF5F00"/>
</svg>
