<svg width="48" height="36" viewBox="0 0 48 36" fill="none" xmlns="http://www.w3.org/2000/svg">
<rect x="0.5" y="0.5" width="47" height="35" rx="7.5" fill="white" stroke="#E7EBEE"/>
<path fill-rule="evenodd" clip-rule="evenodd" d="M15.0004 23.1314H12.231L10.1542 15.2086C10.0557 14.8441 9.84638 14.5219 9.53851 14.3701C8.77021 13.9885 7.92359 13.6848 7 13.5316V13.2266H11.4613C12.077 13.2266 12.5388 13.6848 12.6158 14.2169L13.6933 19.9319L16.4614 13.2266H19.1538L15.0004 23.1314ZM20.6931 23.1314H18.0776L20.2313 13.2266H22.8468L20.6931 23.1314ZM26.2308 15.9724C26.3078 15.4389 26.7696 15.1339 27.3083 15.1339C28.155 15.0573 29.0772 15.2105 29.8469 15.5908L30.3087 13.4582C29.539 13.1532 28.6924 13 27.9241 13C25.3856 13 23.5384 14.372 23.5384 16.2761C23.5384 17.7246 24.8468 18.4852 25.7704 18.9434C26.7696 19.4003 27.1544 19.7053 27.0775 20.1622C27.0775 20.8475 26.3078 21.1526 25.5395 21.1526C24.6159 21.1526 23.6923 20.9241 22.847 20.5425L22.3853 22.6764C23.3088 23.0567 24.308 23.2099 25.2316 23.2099C28.078 23.2851 29.8469 21.9145 29.8469 19.8572C29.8469 17.2664 26.2308 17.1146 26.2308 15.9724ZM39 23.1314L36.9233 13.2266H34.6926C34.2308 13.2266 33.769 13.5316 33.6151 13.9885L29.7695 23.1314H32.462L32.9994 21.6842H36.3076L36.6154 23.1314H39ZM35.0773 15.8984L35.8456 19.6314H33.6919L35.0773 15.8984Z" fill="#1A1F71"/>
</svg>
